<?xml version="1.0" encoding="utf-8"?>
<!DOCTYPE svg PUBLIC "-//W3C//DTD SVG 1.1//EN" "http://www.w3.org/Graphics/SVG/1.1/DTD/svg11.dtd">
<svg version="1.1" id="Layer_1" xmlns="http://www.w3.org/2000/svg" xmlns:xlink="http://www.w3.org/1999/xlink" x="0px" y="0px"
	 viewBox="0 0 2598.2773 731.7825" enable-background="new 0 0 2598.2773 731.7825" xml:space="preserve">
<g>
	<g>
		<path fill="#8CC63F" d="M960.0161,565.0501c-8.0904-0.9404-15.4539,4.5526-16.442,12.2688
			c-0.9918,7.7161,4.7699,14.7382,12.8528,15.6757c8.0941,0.9516,15.4547-4.5415,16.4427-12.2576
			C973.8615,573.017,968.1035,565.9987,960.0161,565.0501z"/>
		<path fill="#006837" d="M987.7247,582.2815c0,0-17.8266-35.0253-18.5424-48.3907c-0.7157-13.3647-1.2134-20.9938,15.2471-21.0556
			c0,0-18.9709,7.7854-7.5562,16.4494c11.4213,8.6648,14.4584-6.5175,17.6123-18.8183
			c3.1494-12.3045,13.0418-28.7651,35.671-17.1838c0,0,9.1693,11.5345,1.5007,20.6352c-7.6805,9.0897-21.9172,1.7834-30.2293,15.454
			C993.1121,543.0459,978.4862,555.0379,987.7247,582.2815z"/>
		<path fill="#534741" d="M843.0161,393.426c0,0-13.6817-4.3383-12.9808-20.6166c0.7016-16.2753,19.4545-22.9968,16.5916-6.1292
			C843.7639,383.5403,842.2676,382.3856,843.0161,393.426z"/>
		<path fill="#662D91" d="M858.2557,348.265c0,0,26.5234-26.4691,24.3003-40.1508c-2.2194-13.6884-12.1044-4.2282-14.8439,10.3507
			C864.9764,333.047,861.7504,344.1023,858.2557,348.265z"/>
		<path fill="#00FF00" d="M827.1872,361.8269c0,0,33.3757-35.7075,15.6072-42.7444
			C825.037,312.0457,822.5847,354.7685,827.1872,361.8269z"/>
		<path fill="#BDCCD4" d="M805.5461,365.9317c0,0,41.7198,107.5845,7.6804,128.5352
			c-34.0475,20.9619-57.9669,10.1104-46.8394-28.158C777.5146,428.0323,806.2543,387.5111,805.5461,365.9317z"/>
		<path fill="#8CC63F" d="M741.1062,527.2102c0,0,36.8012,40.2267,1.0975,67.3862c0,0-6.685,3.4805-9.1335-5.845
			C730.6253,579.4222,754.6354,539.3333,741.1062,527.2102z"/>
		<path fill="#22B573" d="M729.3977,559.1613c0,0,4.4789,31.4249-3.4589,42.0219c-7.9379,10.597-17.369,46.4824-1.0863,57.3992
			c16.2828,10.9244-4.5734,19.5267-16.8965,10.1506c-12.3224-9.3694-9.8411-27.4251-1.7432-50.134
			C714.3098,595.8902,733.0411,584.9294,729.3977,559.1613z"/>
		<path fill="#F7931E" d="M770.9576,532.7212c0,0,42.472,21.8845,79.0403,0.4218c36.5653-21.4633,79.5567-56.1649,95.4615-3.8108
			c9.7072,31.9182-43.3946,68.2254-65.7589,41.2511C857.3295,543.6016,798.1751,559.307,770.9576,532.7212z"/>
		<path fill="#009245" d="M802.5201,534.3922c0,0,55.162-8.8969,72.1523-19.7551c16.991-10.8552,26.7458-16.9293,15.8393-37.1613
			c0,0,3.0341,30.0805-15.2828,23.6976c-18.3243-6.3829-1.6026-23.4357,11.501-38.0906
			c13.1006-14.6593,26.8292-41.2407-2.5684-58.7876c0,0-20.3837-1.1116-26.4906,16.279
			c-6.1106,17.3832,12.4102,28.4087,1.0714,50.5952C847.3969,493.3628,842.3435,521.7938,802.5201,534.3922z"/>
		<path fill="#FF931E" d="M854.619,449.2918c0,0-18.4077-23.3807-21.1472-33.7567c-2.735-10.379-4.3703-16.282,7.2006-20.2677
			c0,0-12.0427,10.6915-2.5572,14.7895c9.478,4.1018,9.071-8.6023,9.231-19.0691c0.1525-10.4698,4.3525-25.8366,22.2044-22.1099
			c0,0,8.3768,6.9171,4.5079,15.9308c-3.8763,9.013-15.105,6.6552-18.6725,19.4426
			C851.8364,417.0284,843.5607,430.0018,854.619,449.2918z"/>
		<path fill="#00A99D" d="M827.3107,433.7285c0,0,8.08,28.1334,17.1436,18.6807
			C853.5149,442.9528,832.3425,432.3923,827.3107,433.7285z"/>
		<path fill="#ED1E79" d="M1044.8732,220.395c0,0,15.3163-24.958,8.5376-47.0098c-6.7758-22.0474-19.4359-48.0953,8.1737-56.836
			c16.8348-5.3257,29.2227,26.7667,13.5001,39.6962C1059.3688,169.171,1060.9089,204.5772,1044.8732,220.395z"/>
		<path fill="#C69C6D" d="M1117.0076,273.3733c0,0,1.4061-32.9323-2.183-43.1915c-3.5861-10.2555-5.5726-16.1444-16.7328-9.9356
			c0,0,15.218-1.3876,10.1245,9.4125c-5.0935,10.8113-11.7777,0.6324-17.6563-7.3635c-5.8851-7.9959-17.6011-16.5261-29.3967,0.712
			c0,0-2.6956,12.1044,5.275,15.9807c7.9633,3.8763,15.3781-6.9893,25.1753,0.0654
			C1101.4115,246.1089,1114.9659,249.509,1117.0076,273.3733z"/>
		<path fill="#2E3192" d="M1023.2432,316.6995c0,0-32.4889-63.3-18.7894-88.4396c13.7033-25.1462,26.0948-2.3503,21.2707,26.8761
			C1020.9033,284.352,1019.4435,307.0355,1023.2432,316.6995z"/>
		<path fill="#FF0000" d="M958.999,178.1811c0,0-17.4301-23.3085-5.2855-27.5702
			C965.8581,146.3499,962.7302,173.7266,958.999,178.1811z"/>
		<path fill="#ED1C24" d="M1086.4152,175.2422c2.2015,1.2202,2.9352,4.2498,1.6346,6.7675c-1.3043,2.529-4.1487,3.5862-6.3464,2.369
			c-2.2015-1.2172-2.9277-4.2468-1.6272-6.7757C1081.3767,175.086,1084.2136,174.025,1086.4152,175.2422z"/>
		<path fill="#00A99D" d="M1081.8671,192.5093c2.9865,1.6487,3.9781,5.7691,2.2156,9.1908
			c-1.7722,3.4261-5.627,4.8644-8.6171,3.2119c-2.9895-1.6533-3.9775-5.7691-2.2083-9.199
			C1075.0228,192.2913,1078.8805,190.8524,1081.8671,192.5093z"/>
		<path fill="#C69C6D" d="M1029.8225,262.184c0,0,8.7511-19.9842,1.3987-35.0684c-7.3494-15.0871-19.4872-32.3326,0.0975-42.1374
			c11.9376-5.9766,24.5115,15.672,14.1942,27.0026C1035.2024,223.3122,1040.0668,248.7204,1029.8225,262.184z"/>
		<path fill="#FBB03B" d="M911.772,392.554c5.9684,3.3019,13.6779,0.4323,17.2053-6.4119
			c3.5415-6.8628,1.558-15.0953-4.4142-18.3972c-5.976-3.3057-13.6817-0.436-17.2165,6.4194
			C903.8088,381.0158,905.7953,389.2439,911.772,392.554z"/>
		<path fill="#F15A24" d="M1034.8826,367.3453c0,0,6.9647-67.3281,34.1859-70.8562c27.2101-3.5237,31.1771-15.8721,22.9193-38.1598
			c-8.2719-22.2914-57.9259-15.9628-57.1016,38.4432C1035.7113,351.1786,1034.8826,367.3453,1034.8826,367.3453z"/>
		<path fill="#603813" d="M895.2347,397.5017c0,0-20.9105-7.676-18.9128-32.9613c2.0021-25.2809,31.3594-34.4724,25.9899-8.4208
			C896.9423,382.1743,894.6938,380.2598,895.2347,397.5017z"/>
		<path fill="#A67C52" d="M938.7276,355.9091c0,0-29.3283-12.6535-36.7208-21.1293c-7.3932-8.4751-11.6691-13.2561-1.4278-23.1523
			c0,0-7.7891,16.5476,3.8362,15.4763c11.6215-1.0721,5.6307-13.0024,1.2061-23.0868c-4.4359-10.0852-6.8115-26.9743,13.3253-32.82
			c0,0,11.7197,2.1978,11.658,12.8536c-0.0654,10.655-12.7442,14.3171-10.8291,28.4087
			C921.7001,326.5443,918.8051,343.2921,938.7276,355.9091z"/>
		<path fill="#1B1464" d="M902.2099,308.6232c0,0-16.0901,3.0661-22.4983-12.8677c-6.4156-15.9153,10.074-32.2092,14.5098-14.5894
			C898.6461,298.7888,896.5866,298.4696,902.2099,308.6232z"/>
		<path fill="#FCEE21" d="M860.5555,336.8214c0,0-0.1131-44.3939,26.8217-68.7849c26.9304-24.3948,64.9338-49.8177,35.2931-81.5909
			c-18.0699-19.3704-60.6252,14.2843-50.2098,42.9587C882.8759,258.0823,852.0656,304.0639,860.5555,336.8214z"/>
		<path fill="#006837" d="M848.8246,468.5536c0,0-24.8524,23.2073-12.8491,29.158
			C847.9816,503.6621,851.6876,473.7707,848.8246,468.5536z"/>
		<path fill="#C1272D" d="M999.03,227.1811c0,0-13.2346-3.6331-16.7842-15.2873c-3.549-11.6505-5.8926-27.341-19.4359-19.3667
			c-8.2534,4.8569-4.0944,22.8546,5.8784,21.4991C978.6603,212.6825,988.1056,227.5048,999.03,227.1811z"/>
		<path fill="#C1272D" d="M745.6328,524.7216c0,0,29.0449,12.7442,33.8623,41.1462c4.813,28.4094,5.7364,65.8862,38.726,51.5758
			c20.1122-8.722,15.6943-52.1896-7.3345-52.2261C787.8578,565.181,770.5364,527.461,745.6328,524.7216z"/>
		<path fill="#534741" d="M759.9171,540.5065c0,0,19.0222,32.689,20.8131,46.2651c1.7946,13.5835,2.9024,21.3175-11.8648,24.3472
			c0,0,16.3512-11.4139,5.3547-18.2336c-10.9936-6.8152-12.4139,9.2972-14.172,22.4841
			c-1.7656,13.1876-9.2347,31.8572-30.5381,24.0718c0,0-9.2272-10.1871-3.1241-20.886
			c6.1031-10.7205,19.5118-5.8011,25.7897-21.3138C758.4529,581.7145,770.5506,566.7762,759.9171,540.5065z"/>
		<path fill="#22B573" d="M780.8024,608.1003c0,0-0.1265,48.5238,14.2122,56.1567c14.3282,7.6254,14.7419-10.1536,4.0869-23.868
			C788.4464,626.6567,781.4058,615.0025,780.8024,608.1003z"/>
		<path fill="#009245" d="M1047.5181,371.5014c0,0,6.3324,79.088,31.1051,89.1761c24.7719,10.0777,23.0577-18.9709,3.5601-39.5727
			C1062.6819,400.4845,1049.451,382.6393,1047.5181,371.5014z"/>
		<path fill="#9E005D" d="M755.1942,496.9408c0,0,20.9581,34.0439,61.1743,10.9318c0,0,10.1722-10.4884,13.5433-1.5624
			C833.2799,515.2286,775.9782,556.7893,755.1942,496.9408z"/>
		<path fill="#9E005D" d="M813.2556,563.4883c0,0,48.0775-8.7629,56.0518,25.4372c0,0-2.5251,9.3843-9.5985,3.7275
			C852.6354,587.0037,851.3677,567.2955,813.2556,563.4883z"/>
		<path fill="#39B54A" d="M1103.3334,278.1469c0,0,38.2036,88.4537,4.4618,108.9937c0,0-11.6765,10.594-23.8136-0.8281
			C1071.8436,374.8837,1124.7134,331.4667,1103.3334,278.1469z"/>
		<path fill="#FF931E" d="M1127.1143,336.2299c0,0,23.051-49.5238,1.6785-70.8019c-21.3755-21.2669-31.0826-2.2306-20.6017,7.9453
			C1118.6757,283.5566,1133.5917,298.3603,1127.1143,336.2299z"/>
		<path fill="#FCEE21" d="M768.7672,606.4835c0,0-7.8687,49.4219-25.4089,45.6252c0,0-11.309,1.6747-7.7958,12.1736
			C739.0721,674.7886,770.718,665.8269,768.7672,606.4835z"/>
		<path fill="#9E005D" d="M773.3444,618.1594c0,0,1.9002,38.0258-6.99,45.2041c-8.8858,7.1819-7.8754,18.2336,2.6599,18.5386
			C779.5494,682.2072,782.9421,663.7488,773.3444,618.1594z"/>
		<path fill="#1B1464" d="M835.256,664.9073c0,0-11.1312-24.1224-15.4472-36.4634c-4.319-12.3336-27.2391,1.5513-13.8521,12.1014
			C819.3401,651.0842,833.7263,655.1749,835.256,664.9073z"/>
		<path fill="#F15A24" d="M1051.0276,373.5318c0,0,27.4937,28.9868,47.6088,26.1826c20.1189-2.8049,26.5562-19.3124,35.5438-15.044
			c8.9877,4.2646-14.6475,41.4513-38.0541,29.2807C1072.7268,401.7776,1051.0276,373.5318,1051.0276,373.5318z"/>
		<path fill="#603813" d="M939.4396,182.1444c0,0,6.9424,27.0576,0.3928,45.803c-6.5577,18.7462-3.2224,23.8576,3.4984,24.1917
			C950.0478,252.4769,963.7622,193.9185,939.4396,182.1444z"/>
		<path fill="#8CC63F" d="M947.5196,559.8011c-2.0386,2.2157,12.6237-32.355,3.4292-45.8365
			c-9.202-13.4778,3.8473-27.4169,14.4116-23.2936C975.9283,494.7943,968.6519,536.8482,947.5196,559.8011z"/>
		<path fill="#A67C52" d="M996.1417,221.4344c0,0,3.5058-20.697-9.4742-30.3238c-12.9875-9.635-19.7997-21.4269-8.5302-26.9162
			C989.4136,158.7087,1012.257,182.0715,996.1417,221.4344z"/>
		<path fill="#8C6239" d="M950.1311,339.0958c0,0-7.7452-11.3455-4.0869-24.0131c3.662-12.6683-7.298-23.9952-13.0203-19.1822
			C927.3062,300.7218,925.1084,329.3344,950.1311,339.0958z"/>
		<path fill="#39B54A" d="M1037.4873,20.5935c0,0-127.0092,76.6975-79.7635,122.101
			C1004.9694,188.095,1005.584,67.8429,1037.4873,20.5935z"/>
		<path fill="#F7931E" d="M1040.5571,28.5753c0,0-14.7278,98.1638-33.1354,113.5054
			c-18.4039,15.3386-12.2718,42.3411,13.5038,39.8784C1046.6901,179.5106,1044.8479,106.4893,1040.5571,28.5753z"/>
		<path fill="#009245" d="M1020.9255,16.3683c0,0-92.8679,62.4347-76.7198,106.5786c16.1519,44.1461-42.1082,62.4273-53.069,39.7289
			C880.1804,139.9737,898.6386,53.5876,1020.9255,16.3683z"/>
		<path fill="#BDCCD4" d="M992.8398,15.7984c0,0-56.281-5.6314-67.5357,8.4423c-11.2547,14.0708-18.2916,40.801,0,29.55
			C943.5957,42.5323,961.8835,17.2075,992.8398,15.7984z"/>
		<path fill="#009245" d="M963.2935,224.0316c0,0-9.8492,37.9887-21.1069,40.8078c-11.2547,2.8124-7.0339,26.731,11.2577,22.5094
			C971.7328,283.1273,978.7727,246.5448,963.2935,224.0316z"/>
		<path fill="#00A99D" d="M693.1486,668.6497c0,0,7.0369,35.1733,35.1733,30.9517c28.1438-4.2216,57.6901-23.9186,77.3879-15.4763
			c19.6978,8.4394,25.3248,25.3248,12.6639,28.1409c-12.6639,2.8116-35.177,1.4017-53.4686,1.4017
			c-18.2916,0-60.498,11.2622-71.7565-7.0331C681.8939,688.343,693.1486,668.6497,693.1486,668.6497z"/>
		<path fill="#FBB03B" d="M899.0932,477.182c0,0,26.2109-1.2931,36.0594-1.2931c9.853,0,15.4763,26.7302,1.4062,23.9186
			C922.4887,496.9921,907.6777,476.8873,899.0932,477.182z"/>
		<path fill="#998675" d="M1034.8826,367.3453c0,0,17.0498-50.4501,32.5291-57.487c15.4762-7.0332,28.14,4.2215,19.6978,19.6978
			C1078.67,345.0323,1068.4836,337.5922,1034.8826,367.3453z"/>
		<path fill="#ED1C24" d="M1149.021,322.5229c0,0,59.0919,158.993,60.498,163.2145c1.4063,4.2215,1.4063,64.7196-46.4316,52.0558
			c-47.8379-12.6609-33.7642-49.2441-23.9193-80.1996C1149.021,426.6411,1174.3458,377.3977,1149.021,322.5229z"/>
		<path fill="#22B573" d="M1219.3676,520.9144c0,0-5.6233,74.5688-26.7302,73.1589c-21.1069-1.4055-53.4692,99.9011,7.0332,95.6758
			C1260.1722,685.5314,1251.73,596.885,1219.3676,520.9144z"/>
		<path fill="#FCEE21" d="M1199.6705,539.206c0,0-30.9562,29.5425-59.0963,0c-28.1364-29.55-33.7678-66.1332-4.2216-111.1588
			c29.5463-45.0226-35.177-12.6646-37.9886,40.804C1095.5516,522.3169,1132.1311,568.7485,1199.6705,539.206z"/>
		<path fill="#754C24" d="M1191.2274,556.0877c0,0-64.7233,8.4431-88.6418-23.9224c-23.9155-32.3579-35.174-40.801-45.0225-33.7678
			C1047.7145,505.4382,1095.5516,588.45,1191.2274,556.0877z"/>
		<path fill="#FF0000" d="M1194.0428,564.5308c0,0-101.3065,26.731-132.2583-16.8891
			c-30.9562-43.6164-49.2477,11.2584-25.3285,21.1069C1060.3746,578.5971,1113.8433,610.9588,1194.0428,564.5308z"/>
		<path fill="#009245" d="M1178.5673,582.8187c0,0-54.8748,8.4431-57.6901,28.1401c-2.8124,19.6978,18.2909,68.9449,28.1438,49.2478
			C1158.8695,640.5051,1130.7257,613.7749,1178.5673,582.8187z"/>
		<path fill="#F15A24" d="M1147.6111,684.1252c0,0,42.2072,33.7679,66.1332,19.6978
			c23.9149-14.0738,54.8711-46.4318,45.0189-84.4174c0,0,32.3616,80.1959,25.3284,84.4174
			c-7.0369,4.2178-40.8047,12.6609-75.9786,11.2547C1172.9359,713.6677,1164.4965,701.0076,1147.6111,684.1252z"/>
		<path fill="#0071BC" d="M859.1746,216.9985c0,0,9.8492,74.5718-7.0332,84.4204
			C835.256,311.2719,821.186,288.755,859.1746,216.9985z"/>
		<path fill="#FF7BAC" d="M966.1051,475.8889c0,0,15.4799,18.2879,9.8522,29.5493
			C970.3303,516.6891,1019.5737,491.3644,966.1051,475.8889z"/>
		<path fill="#C69C6D" d="M1033.6437,475.8889c0,0,28.9036,8.2139,39.7766,1.2931c10.8767-6.9246-18.6726,16.9948-27.1157,19.8101
			C1037.8652,499.8075,1029.423,487.1428,1033.6437,475.8889z"/>
		<path fill="#9E005D" d="M1063.1901,592.6679c0,0-39.3948,2.8154-53.4649-1.4062c-14.0701-4.2215-14.0701-29.55-4.2216-29.55
			S1015.3521,578.5971,1063.1901,592.6679z"/>
		<path fill="#998675" d="M843.6991,643.3175c0,0-2.8161-21.1003-2.8161-39.392c0-18.2915-8.4423-25.3284-8.4423-25.3284
			S864.806,591.2617,843.6991,643.3175z"/>
		<path fill="#29ABE2" d="M828.2191,682.716c0,0-11.2547-1.4062-11.2547-16.8824
			C816.9644,650.3581,829.6283,665.8336,828.2191,682.716z"/>
		<path fill="#3FA9F5" d="M700.1854,671.4576c0,0,9.8485,14.0738,23.9186,15.4763c14.0708,1.4092,28.1371-4.2178,21.104-8.4357
			C738.1748,674.2729,712.8463,686.9338,700.1854,671.4576z"/>
	</g>
	<g>
		<path fill="#00FFFF" d="M2156.0842,699.3167c3.9849-3.2654,9.7397-2.5319,12.8601,1.6495
			c3.1138,4.1702,2.4084,10.2086-1.5728,13.4816c-3.9856,3.2625-9.7437,2.5252-12.8604-1.6533
			C2151.3938,708.6169,2152.0984,702.5829,2156.0842,699.3167z"/>
		<path fill="#D9E021" d="M2172.5083,692.3781c0,0-12.2905,7.4692-12.937,1.0394
			C2158.9211,686.9795,2170.8953,690.2204,2172.5083,692.3781z"/>
		<path fill="#FF1D25" d="M2143.3652,701.4714c1.4932-1.2246,3.6545-0.9523,4.8242,0.6176
			c1.1741,1.5654,0.9045,3.8361-0.5916,5.0571c-1.4932,1.2202-3.6479,0.9516-4.825-0.6176
			C2141.6072,704.9623,2141.8721,702.699,2143.3652,701.4714z"/>
		<path fill="#3FA9F5" d="M2142.2322,706.6877c0,0-7.197-9.4743-9.5115-4.8063
			C2130.4104,706.5538,2140.3936,707.8253,2142.2322,706.6877z"/>
		<path fill="#754C24" d="M2120.9324,705.6312c1.4241,2.517,4.5154,3.3563,6.9202,1.863c2.4053-1.4896,3.2007-4.7409,1.7766-7.2579
			c-1.4165-2.514-4.5154-3.3533-6.917-1.8638C2120.3074,699.8651,2119.5122,703.1097,2120.9324,705.6312z"/>
		<path fill="#00FFFF" d="M2216.5024,689.3849c0,0,16.5149,13.0232,23.6284,9.8195c7.1204-3.2045,1.1809-8.1119-6.8552-7.8873
			C2225.2432,691.5462,2219.0493,691.0046,2216.5024,689.3849z"/>
		<path fill="#D4145A" d="M2175.1309,710.4078c-0.4248-1.1183-1.6382-1.6674-2.7061-1.2165
			c-1.072,0.4464-1.5876,1.7105-1.1592,2.8332c0.425,1.1227,1.6384,1.6711,2.7068,1.2209
			C2175.04,712.8019,2175.5632,711.523,2175.1309,710.4078z"/>
		<path fill="#9E005D" d="M2182.949,702.8701c-0.2612-0.6904-1.0535-1.0104-1.7693-0.712
			c-0.7083,0.3013-1.0713,1.1003-0.8103,1.8012c0.2656,0.6905,1.0574,1.0067,1.7693,0.712
			C2182.8508,704.3738,2183.2183,703.571,2182.949,702.8701z"/>
		<path fill="#754C24" d="M2222.2427,711.1748c-0.2798-0.7448-1.0901-1.1115-1.8057-0.8139
			c-0.7085,0.3013-1.0574,1.1517-0.7739,1.9002c0.2834,0.7448,1.0938,1.1115,1.802,0.8102
			C2222.1809,712.7729,2222.5327,711.9233,2222.2427,711.1748z"/>
		<path fill="#FF0000" d="M2221.9517,706.4846c-0.3845-1.0134-1.4858-1.5111-2.4485-1.1079
			c-0.9702,0.407-1.4419,1.558-1.0574,2.5721c0.3855,1.0096,1.4858,1.5037,2.4524,1.1004
			C2221.8684,708.6459,2222.3372,707.4979,2221.9517,706.4846z"/>
		<path fill="#1B1464" d="M2185.9316,710.7024c-0.3235-0.8542-1.2461-1.2753-2.0601-0.9338
			c-0.8169,0.3453-1.2126,1.3117-0.8899,2.1651c0.3274,0.8504,1.2537,1.2715,2.064,0.9301
			C2185.8625,712.5222,2186.2583,711.5528,2185.9316,710.7024z"/>
		<path fill="#3FA9F5" d="M2227.281,707.175c3.9783-6.8992,15.9236-6.1686,15.9236-2.543s1.0422,13.431-1.5552,13.431
			c-2.6011,0-15.5818-3.2662-17.834-2.1763C2221.5671,716.9692,2227.281,707.175,2227.281,707.175z"/>
		<path fill="#A67C52" d="M2129.938,716.8419c0,0-13.6667-15.2723-15.0254-10.626c-1.3623,4.6538,0.6323,10.731,6.8806,10.626
			C2128.0386,716.7512,2129.938,716.8419,2129.938,716.8419z"/>
		<path fill="#D4145A" d="M2117.739,462.0824c0,0-1.697,21.2089,10.8984,32.8229c12.5879,11.6036,30.6943,23.6828,14.6624,38.912
			c-9.7654,9.2928-29.8477-6.7177-23.5667-20.4351C2126.0149,499.6678,2112.2751,477.7439,2117.739,462.0824z"/>
		<path fill="#FF0000" d="M2148.9602,508.6815c0,0,23.7949,14.8513,23.6135,25.7281c-0.1853,10.8768-9.0027,5.656-12.8098-4.9156
			C2155.9607,518.9296,2152.1714,511.1554,2148.9602,508.6815z"/>
		<path fill="#662D91" d="M2203.021,583.5079c-7.7676,0.0654-14.114-6.4886-14.1794-14.6296
			c-0.0618-8.1447,6.1873-14.8044,13.9541-14.8699c7.7705-0.0618,14.1213,6.4848,14.186,14.6266
			C2217.0435,576.7872,2210.7952,583.4387,2203.021,583.5079z"/>
		<path fill="#736357" d="M2201.2734,526.5878c-5.0571,0.0402-9.1909-4.2178-9.2349-9.5256
			c-0.04-5.2966,4.0288-9.6306,9.0896-9.6811c5.0571-0.0402,9.1909,4.2245,9.2385,9.5249
			C2210.4031,522.2137,2206.3379,526.5409,2201.2734,526.5878z"/>
		<path fill="#FF0000" d="M2184.2241,521.5887c0,0,14.0813,1.9366,10.8552,7.4513
			C2191.8496,534.5583,2184.2495,524.3281,2184.2241,521.5887z"/>
		<path fill="#998675" d="M2229.3992,546.2416c-1.8965,0.0149-3.4478-1.5877-3.4617-3.575
			c-0.0188-1.9902,1.511-3.6181,3.4104-3.6323c1.8965-0.0186,3.4478,1.5833,3.459,3.5742
			C2232.8247,544.5996,2231.2996,546.2164,2229.3992,546.2416z"/>
		<path fill="#736357" d="M2223.314,563.4396c-1.1733,0.0074-2.1287-1.061-2.1436-2.3869c-0.0066-1.3257,0.9375-2.4083,2.1072-2.412
			c1.177-0.0178,2.136,1.0535,2.1436,2.3757C2225.436,562.3466,2224.491,563.4291,2223.314,563.4396z"/>
		<path fill="#FCEE21" d="M2212.6113,533.0071c-1.8994,0.0111-3.447-1.584-3.4619-3.5751c-0.0215-1.9909,1.5112-3.6144,3.4038-3.633
			c1.9004-0.0104,3.4517,1.5878,3.4658,3.575C2216.0339,531.3613,2214.5078,532.9893,2212.6113,533.0071z"/>
		<path fill="#2E3192" d="M2198.7957,544.4396c-3.4365,0.0327-6.2378-2.863-6.2668-6.4595
			c-0.0288-3.5995,2.7322-6.5458,6.165-6.5682c3.4365-0.0394,6.2378,2.8555,6.2668,6.4595S2202.2285,544.4106,2198.7957,544.4396z"
			/>
		<path fill="#662D91" d="M2184.8669,562.735c-1.9871,0.0215-3.6106-1.66-3.6255-3.7417c-0.0178-2.0854,1.5803-3.7781,3.5713-3.8041
			c1.9836-0.0142,3.6113,1.6606,3.6218,3.7424C2188.4531,561.0163,2186.8542,562.7171,2184.8669,562.735z"/>
		<path fill="#C1272D" d="M2182.106,587.1044c-0.9038,0.0141-1.6421-0.7522-1.6487-1.6964
			c-0.0073-0.9487,0.7188-1.7225,1.6196-1.7299c0.9084-0.0029,1.6458,0.7523,1.657,1.7038
			C2183.7415,586.3306,2183.0107,587.1006,2182.106,587.1044z"/>
		<path fill="#D4145A" d="M2236.5671,563.3272c-1.4426,0.0112-2.6272-1.2098-2.6375-2.7209
			c-0.0112-1.5222,1.1479-2.7573,2.5972-2.7684c1.4458-0.0148,2.6228,1.2023,2.6377,2.7172
			C2239.1755,562.0735,2238.0127,563.3086,2236.5671,563.3272z"/>
		<path fill="#93278F" d="M2218.8276,544.5014c0.5015-4.2833-2.4084-8.17-6.4885-8.6931c-4.0869-0.5267-7.7996,2.517-8.301,6.8003
			c-0.4978,4.2759,2.4045,8.1708,6.4922,8.6938C2214.606,551.8255,2218.3262,548.7809,2218.8276,544.5014z"/>
		<path fill="#93278F" d="M2216.5457,529.6032c0,0,0.1926,12.1044,4.7417,9.8738
			C2225.8354,537.254,2218.6565,529.8718,2216.5457,529.6032z"/>
		<path fill="#C7B299" d="M2231.3792,570.1349c0.189-1.6093-0.9048-3.0698-2.4375-3.2692
			c-1.5259-0.1927-2.9209,0.9516-3.1099,2.5535c-0.1853,1.6093,0.9009,3.0631,2.4336,3.2625
			C2229.7988,572.8818,2231.1902,571.7375,2231.3792,570.1349z"/>
		<path fill="#1B1464" d="M2245.1948,566.5637c0.1167-0.9948-0.6177-1.9106-1.6384-2.0341
			c-1.0244-0.1273-1.9397,0.5706-2.0557,1.5624c-0.1206,0.9955,0.6138,1.9031,1.6345,2.0341
			C2244.1599,568.2645,2245.0786,567.5628,2245.1948,566.5637z"/>
		<path fill="#00A99D" d="M2222.7292,554.6951c0.1853-1.6093-0.9048-3.0698-2.4338-3.2654
			c-1.5332-0.1965-2.9246,0.9442-3.1172,2.5534c-0.1816,1.6027,0.9084,3.0661,2.4373,3.2662
			C2221.1489,557.442,2222.5366,556.2977,2222.7292,554.6951z"/>
		<path fill="#9E005D" d="M2232.8069,544.0438c0.3452-2.9024-1.6243-5.5474-4.3958-5.9c-2.772-0.3519-5.2935,1.7112-5.6313,4.6136
			c-0.3379,2.9069,1.6353,5.5511,4.4031,5.9038C2229.9587,549.0168,2232.4766,546.9536,2232.8069,544.0438z"/>
		<path fill="#3FA9F5" d="M2248.199,533.9408c0.2002-1.6822-0.9441-3.2148-2.5496-3.4187c-1.6028-0.2068-3.0662,0.9918-3.2588,2.674
			c-0.1965,1.6747,0.9404,3.2074,2.5466,3.415C2246.543,536.8142,2248.0071,535.6193,2248.199,533.9408z"/>
		<path fill="#754C24" d="M2243.8875,577.7789c0.1414-1.2246-0.6904-2.3362-1.8533-2.485c-1.1697-0.1563-2.2268,0.712-2.3682,1.9434
			c-0.146,1.2135,0.6868,2.3325,1.8525,2.4813C2242.6807,579.8636,2243.7417,578.9991,2243.8875,577.7789z"/>
		<path fill="#00FF00" d="M2165.78,580.0817c0,0,2.3503-10.9854-5.3835-15.2798c-7.7349-4.3049-15.9233-0.7009-17.0857-14.4041
			c-1.1628-13.7144,14.873-12.3558,17.1904-6.0049C2162.8159,550.7504,2168.3999,574.1422,2165.78,580.0817z"/>
		<path fill="#662D91" d="M2241.4568,596.9061c0.6643-5.7073-3.2112-10.8991-8.6575-11.5999
			c-5.4453-0.6979-10.4043,3.3674-11.0693,9.0747c-0.6643,5.7111,3.2119,10.9058,8.6575,11.6074
			C2235.8328,606.6854,2240.7917,602.6201,2241.4568,596.9061z"/>
		<path fill="#FBB03B" d="M2240.5305,662.2833c0.2871-2.5103-1.5625-4.8138-4.1345-5.1366
			c-2.5833-0.3311-4.9082,1.4307-5.2021,3.9373c-0.291,2.514,1.5588,4.8175,4.1411,5.1478
			C2237.9146,666.5593,2240.2322,664.7974,2240.5305,662.2833z"/>
		<path fill="#534741" d="M2120.4854,550.7898c0,0-8.2468,53.4039-4.0178,71.4664c4.2246,18.0662,6.5317,28.402,26.4907,22.2111
			c0,0-25.9424-3.1382-15.4211-19.0103c10.5315-15.887,20.002,3.1531,28.4995,18.3347c8.501,15.1712,26.771,33.3029,49.7559,9.2712
			c0,0,6.7139-18.8578-6.0488-28.0315c-12.7622-9.173-27.2205,5.973-42.4973-9.0532
			C2141.959,600.9528,2119.6824,590.5738,2120.4854,550.7898z"/>
		<path fill="#F15A24" d="M2162.8159,609.5447c-2.7686-2.1577-3.3457-6.2594-1.2827-9.1589
			c2.0566-2.9024,5.9685-3.5021,8.7371-1.3474c2.7686,2.1613,3.342,6.2594,1.2864,9.1618
			C2169.4966,611.0959,2165.5769,611.706,2162.8159,609.5447z"/>
		<path fill="#F7931E" d="M2160.3311,588.9823c-1.7114-1.3333-1.9873-3.9849-0.6101-5.9179
			c1.3652-1.9322,3.8689-2.4195,5.583-1.0826c1.7112,1.337,1.9873,3.9887,0.6174,5.918
			C2164.5488,589.8364,2162.0459,590.3156,2160.3311,588.9823z"/>
		<path fill="#0000FF" d="M2169.1445,574.5127c-1.3191-1.0282-1.5876-2.9827-0.6108-4.3666
			c0.9775-1.3735,2.8413-1.6674,4.1599-0.6324c1.3184,1.0245,1.5913,2.9791,0.6099,4.3525
			C2172.3267,575.2538,2170.4629,575.5447,2169.1445,574.5127z"/>
		<path fill="#29ABE2" d="M2176.6606,616.4692c0,0,24.7183-12.5842,34.1563-13.0857c9.4348-0.5089,14.8147-0.8541,14.8586,10.757
			c0,0-5.4968-13.3841-11.6104-5.3295c-6.1143,8.054,4.6025,10.205,13.2852,12.4281c8.6863,2.2231,20.3042,9.2131,12.1267,25.1827
			c0,0-8.1382,6.4707-14.5613,1.061c-6.4185-5.4239-1.2566-15.4688-10.9058-21.3391
			C2204.3579,620.2762,2195.8896,609.9516,2176.6606,616.4692z"/>
		<path fill="#C7B299" d="M2197.3933,593.9925c0,0-25.7607,1.9836-20.4456,12.344
			C2182.2622,616.6939,2197.0845,598.9692,2197.3933,593.9925z"/>
		<path fill="#009245" d="M2134.0613,632.9878c-0.6428-1.7878,0.3237-3.822,2.1614-4.5482
			c1.8347-0.7232,3.8474,0.1376,4.4871,1.9285c0.6467,1.7842-0.3198,3.8257-2.1621,4.549
			C2136.71,635.6395,2134.7041,634.7786,2134.0613,632.9878z"/>
		<path fill="#ED1C24" d="M2121.593,655.3157c6.1182-5.0206,14.9644-3.8837,19.7522,2.5356
			c4.7886,6.4081,3.7021,15.6793-2.4194,20.6962c-6.1174,5.017-14.96,3.8838-19.7449-2.5244
			C2114.3933,669.6038,2115.4758,660.3326,2121.593,655.3157z"/>
		<path fill="#FBB03B" d="M2117.1797,684.1931c0.9263-0.7589,2.3064-0.5305,3.0876,0.5193
			c0.7813,1.0356,0.6577,2.4999-0.2649,3.2588c-0.9263,0.7596-2.3071,0.5267-3.0847-0.5119
			C2116.1365,686.4095,2116.2571,684.9528,2117.1797,684.1931z"/>
		<path fill="#ED1E79" d="M2147.6702,683.5831c2.7029-2.2202,6.6082-1.7224,8.7227,1.1152c2.1182,2.8333,1.6421,6.935-1.0647,9.1477
			c-2.7065,2.2156-6.6121,1.7142-8.7295-1.119C2144.4878,689.893,2144.967,685.7987,2147.6702,683.5831z"/>
		<path fill="#FF00FF" d="M2148.0659,660.1726c1.5698-1.2752,3.8257-0.9844,5.0532,0.6503c1.2246,1.642,0.9487,4.014-0.6174,5.2966
			c-1.5654,1.2827-3.825,0.9992-5.0535-0.6503C2146.2244,663.8272,2146.5005,661.462,2148.0659,660.1726z"/>
		<path fill="#0000FF" d="M2136.0776,639.0947c0.7119-0.5848,1.7439-0.4546,2.2998,0.2872c0.5557,0.7514,0.4321,1.8303-0.2798,2.412
			c-0.7122,0.5848-1.7441,0.4501-2.2998-0.291C2135.2419,640.7546,2135.3694,639.6758,2136.0776,639.0947z"/>
		<path fill="#FCEE21" d="M2131.7549,696.3235c2.092,3.7238,6.6626,4.9477,10.2012,2.7536
			c3.5415-2.1941,4.7148-6.9826,2.6189-10.6952c-2.092-3.7089-6.6589-4.941-10.2012-2.7462
			C2130.8315,687.8299,2129.6582,692.6176,2131.7549,696.3235z"/>
		<path fill="#534741" d="M2122.7344,690.7434c0.7842,1.3951,2.4993,1.86,3.825,1.0387c1.3296-0.8281,1.7729-2.6227,0.9844-4.0214
			c-0.7878-1.3839-2.4954-1.8459-3.8323-1.0245C2122.3892,687.5605,2121.9495,689.3521,2122.7344,690.7434z"/>
		<path fill="#FBB03B" d="M2176.988,679.9388c0,0,13.4956-7.222,24.6997-1.3839c11.207,5.8413,24.2786,15.5344,29.7932-0.3705
			c3.3533-9.6997-12.864-19.7156-20.1299-11.2949C2204.085,675.311,2185.7644,671.5583,2176.988,679.9388z"/>
		<path fill="#FF0000" d="M2186.8728,678.9366c0,0,17.1362,1.7908,22.3384,4.7587c5.1948,2.9753,8.1738,4.6464,4.563,10.8626
			c0,0,1.2529-9.0427-4.5303-6.8412c-5.7869,2.1978-0.741,7.0331,3.2046,11.2078c3.9417,4.174,7.9556,11.905-1.4063,17.6227
			c0,0-6.3792,0.654-8.1084-4.4462c-1.7363-5.1047,4.1665-8.6976,0.8499-15.1497
			C2200.4668,690.4927,2199.1812,682.0712,2186.8728,678.9366z"/>
		<path fill="#39B54A" d="M2189.0417,686.3181c-1.7551-4.5884-6.7178-6.8219-11.0947-4.9879
			c-4.3816,1.8348-6.5103,7.0406-4.7595,11.6252c1.7515,4.5958,6.7207,6.8226,11.0947,4.9953
			C2188.6602,696.113,2190.7886,690.9064,2189.0417,686.3181z"/>
		<path fill="#FF1D25" d="M2173.7434,680.4001c-0.4502-1.1733-1.7151-1.7432-2.8369-1.2744
			c-1.1228,0.465-1.6682,1.8049-1.2173,2.9753c0.4434,1.1659,1.7217,1.7395,2.834,1.2745
			C2173.645,682.9037,2174.1904,681.5742,2173.7434,680.4001z"/>
		<path fill="#FFFF00" d="M2192.4016,666.5302c-0.3267-0.8504-1.2461-1.2641-2.0669-0.9225
			c-0.814,0.334-1.2097,1.3109-0.8831,2.1613c0.3237,0.8534,1.2463,1.2678,2.0603,0.9263
			C2192.3333,668.3538,2192.7217,667.3836,2192.4016,666.5302z"/>
		<path fill="#754C24" d="M2186.1675,673.1713c-0.2029-0.5342-0.7842-0.785-1.293-0.5744c-0.5081,0.2142-0.7559,0.814-0.552,1.3519
			c0.2068,0.5334,0.7813,0.7953,1.293,0.5811C2186.1245,674.3119,2186.3677,673.7122,2186.1675,673.1713z"/>
		<path fill="#736357" d="M2200.1438,661.0446c-0.2039-0.5305-0.781-0.785-1.29-0.5811c-0.5081,0.2173-0.7551,0.8207-0.552,1.3586
			c0.2031,0.5305,0.7813,0.7842,1.293,0.5811C2200.1001,662.1852,2200.3433,661.5818,2200.1438,661.0446z"/>
		<path fill="#A67C52" d="M2211.9797,651.7191c-0.2217-0.5886-0.8579-0.8719-1.4175-0.6398
			c-0.5625,0.2396-0.8354,0.901-0.6101,1.4895c0.2256,0.5922,0.8579,0.872,1.4204,0.6428
			C2211.9321,652.972,2212.2051,652.3039,2211.9797,651.7191z"/>
		<path fill="#FBB03B" d="M2150.2935,589.0114c0,0-15.146-3.4441-19.4976-6.6664c-4.3525-3.2149-6.8555-5.0207-3.0156-10.1863
			c0,0-2.0051,7.9342,3.375,6.6009c5.3911-1.3444,1.3511-6.2088-1.762-10.3649c-3.1138-4.1561-5.9468-11.498,2.9858-15.5923
			c0,0,5.7654,0.0945,6.8083,4.8465c1.0461,4.7409-4.5742,7.3204-2.2454,13.4414
			C2139.271,577.2157,2139.5981,584.8813,2150.2935,589.0114z"/>
		<path fill="#FF00FF" d="M2210.4612,597.0437c0,0,15.8972-10.1104,15.7158-17.4047c-0.178-7.3062-6.0706-3.7454-8.574,3.3674
			C2215.1074,590.1162,2212.6077,595.3622,2210.4612,597.0437z"/>
		<path fill="#1B1464" d="M2228.6724,498.2661c-4.2393,0-7.6797,3.5995-7.6797,8.0465c0,4.4432,3.4404,8.0465,7.6797,8.0465
			c4.2402,0,7.6768-3.6033,7.6768-8.0465C2236.3491,501.8656,2232.9126,498.2661,2228.6724,498.2661z"/>
		<path fill="#D9E021" d="M2243.2261,518.4795c-1.0393,0-1.8787,0.8786-1.8787,1.9612c0,1.09,0.8394,1.9694,1.8787,1.9694
			c1.0349,0,1.8743-0.8795,1.8743-1.9694C2245.1003,519.3581,2244.261,518.4795,2243.2261,518.4795z"/>
		<path fill="#754C24" d="M2226.5327,519.6089c-1.8779,0-3.3965,1.584-3.3965,3.546c0,1.9687,1.5186,3.5564,3.3965,3.5564
			c1.8711,0,3.3896-1.5877,3.3896-3.5564C2229.9224,521.1929,2228.4038,519.6089,2226.5327,519.6089z"/>
		<path fill="#0071BC" d="M2113.1611,367.2421c0,0,32.4785,56.8256,65.9368,41.6217c33.4517-15.2106,71.47,6.0816,63.8662,42.574
			C2235.3611,487.9377,2132.3828,467.0487,2113.1611,367.2421z"/>
		<path fill="#93278F" d="M2242.7209,467.7637c0,0-45.0369,22.5169-73.551-7.5049c-28.5256-30.0225-46.0322-10.0055-43.5332-0.494
			C2128.136,469.2681,2188.1802,515.3003,2242.7209,467.7637z"/>
		<path fill="#F7931E" d="M2211.6924,489.7754c0,0-45.0291,10.0092-65.5408-5.496c-20.5149-15.5127-22.5161,0.494-18.5134,6.0012
			C2131.6418,495.7848,2154.6563,525.7991,2211.6924,489.7754z"/>
		<path fill="#ED1E79" d="M2242.2195,476.2722c0,0-30.5271,10.0011-31.0247,22.5169
			C2210.6934,511.2968,2229.708,483.2764,2242.2195,476.2722z"/>
		<path fill="#D4145A" d="M2200.6921,499.7846c0,0-16.0171,8.0063-23.519,8.5078c-7.5056,0.5015-12.5083,4.0035-9.5039,10.0048
			C2170.666,524.3029,2191.686,512.296,2200.6921,499.7846z"/>
		<path fill="#00A99D" d="M2143.6487,441.244c0,0-19.011-34.523-27.0212-30.5232
			C2108.6243,414.7311,2114.6292,439.2456,2143.6487,441.244z"/>
		<path fill="#662D91" d="M2389.6638,683.4015c0,0,14.1279-22.6367,24.4788-22.4662c10.3425,0.1785,5.3726,8.5666-4.6724,12.1847
			C2399.4177,676.7418,2392.0215,680.3421,2389.6638,683.4015z"/>
		<path fill="#009245" d="M2460.8354,631.9737c0.0618,7.397-6.1687,13.4272-13.9102,13.489
			c-7.749,0.0654-14.0776-5.8815-14.1392-13.271c-0.0657-7.3888,6.1611-13.4265,13.9138-13.4882
			C2454.4421,618.638,2460.7698,624.5849,2460.8354,631.9737z"/>
		<path fill="#FF1D25" d="M2406.7024,633.6381c0.0393,4.8138-4.0222,8.7407-9.0645,8.7809
			c-5.0391,0.0469-9.1624-3.8257-9.1982-8.6432c-0.0437-4.8063,4.0103-8.7407,9.0532-8.7801
			C2402.5388,624.9554,2406.6548,628.828,2406.7024,633.6381z"/>
		<path fill="#22B573" d="M2401.9465,649.8591c0,0,1.8423-13.3982,7.0876-10.3284
			C2414.2803,642.6005,2404.5588,649.8301,2401.9465,649.8591z"/>
		<path fill="#22B573" d="M2425.3899,606.8893c0.0139,1.8087-1.5083,3.2841-3.3972,3.2945
			c-1.8892,0.0186-3.4368-1.4345-3.4509-3.2439c-0.0186-1.802,1.5-3.2767,3.3965-3.2878
			C2423.8311,603.6342,2425.3711,605.0873,2425.3899,606.8893z"/>
		<path fill="#93278F" d="M2441.7485,612.6799c0.011,1.1154-1.0068,2.0267-2.2671,2.0379
			c-1.2642,0.0112-2.2886-0.8898-2.2998-2.0089c-0.0105-1.1153,1.0066-2.0274,2.2634-2.0379
			C2440.7097,610.6562,2441.7336,611.5572,2441.7485,612.6799z"/>
		<path fill="#009245" d="M2412.8054,622.8596c0.0105,1.8049-1.5081,3.2766-3.397,3.287c-1.8928,0.0261-3.4368-1.4307-3.4546-3.2365
			c-0.0149-1.8019,1.5073-3.2766,3.3965-3.2952C2411.2432,619.6045,2412.7869,621.05,2412.8054,622.8596z"/>
		<path fill="#662D91" d="M2423.6785,635.9996c0.0291,3.2655-2.7246,5.9283-6.1433,5.9573
			c-3.4253,0.0298-6.2229-2.5973-6.2483-5.8598c-0.0288-3.2655,2.7246-5.9357,6.1501-5.9648
			C2420.8594,630.1107,2423.6494,632.7333,2423.6785,635.9996z"/>
		<path fill="#0071BC" d="M2441.0803,649.2445c0.0178,1.886-1.5774,3.4374-3.5608,3.4478c-1.98,0.0215-3.5967-1.5037-3.6145-3.3965
			c-0.0149-1.889,1.5767-3.4336,3.5564-3.444C2439.4451,645.8332,2441.0618,647.3555,2441.0803,649.2445z"/>
		<path fill="#C7B299" d="M2464.2615,651.8716c0.0076,0.8608-0.7195,1.5579-1.6167,1.5692
			c-0.8972,0.0037-1.6382-0.6868-1.6458-1.5475c-0.0073-0.8571,0.7195-1.5624,1.6167-1.5729
			C2463.5168,650.3204,2464.2542,651.0101,2464.2615,651.8716z"/>
		<path fill="#00FF00" d="M2441.6428,600.0771c0.011,1.366-1.1511,2.4962-2.5938,2.5073c-1.4419,0.0104-2.6121-1.0938-2.6226-2.4672
			c-0.0112-1.3802,1.1406-2.4991,2.5825-2.5103C2440.4517,597.5958,2441.6287,598.6969,2441.6428,600.0771z"/>
		<path fill="#22B573" d="M2423.7402,616.9521c-4.0728-0.4792-7.7778,2.2849-8.2756,6.1686
			c-0.4978,3.8838,2.3979,7.4186,6.4736,7.8911c4.0691,0.4791,7.7742-2.2856,8.2683-6.1686
			C2430.708,620.9594,2427.813,617.4245,2423.7402,616.9521z"/>
		<path fill="#93278F" d="M2409.5684,619.1171c0,0,11.5129-0.1815,9.3945-4.508
			C2416.8447,610.282,2409.8228,617.1046,2409.5684,619.1171z"/>
		<path fill="#ED1C24" d="M2448.1172,605.0143c-1.5334-0.1815-2.9136,0.8541-3.1062,2.3072
			c-0.1816,1.4605,0.9009,2.7826,2.4299,2.9604c1.5222,0.1748,2.9106-0.8571,3.0989-2.3102
			C2450.7249,606.5113,2449.6423,605.1892,2448.1172,605.0143z"/>
		<path fill="#ED1E79" d="M2444.7236,591.8669c-0.9441-0.1087-1.8123,0.5848-1.9434,1.555
			c-0.1167,0.9775,0.5447,1.8526,1.4895,1.9619c0.948,0.1161,1.8162-0.5848,1.9397-1.5624
			C2446.333,592.8512,2445.6687,591.9763,2444.7236,591.8669z"/>
		<path fill="#FF00FF" d="M2433.4326,613.2357c-1.5327-0.1779-2.9172,0.8608-3.1025,2.3139
			c-0.189,1.4604,0.8972,2.7863,2.427,2.9648c1.5259,0.1704,2.9136-0.8616,3.0986-2.3213
			C2436.0449,614.7394,2434.9585,613.4172,2433.4326,613.2357z"/>
		<path fill="#00A99D" d="M2423.3081,603.6446c-2.7686-0.3229-5.2788,1.5513-5.613,4.1926
			c-0.3413,2.6338,1.6272,5.0317,4.3816,5.351c2.7639,0.3199,5.2817-1.5543,5.6196-4.1881
			C2428.0339,606.3662,2426.0691,603.9645,2423.3081,603.6446z"/>
		<path fill="#0000FF" d="M2413.6917,589.0151c-1.5981-0.189-3.0549,0.8973-3.2515,2.4232
			c-0.1963,1.5223,0.9443,2.9136,2.5432,3.1025c1.5981,0.1816,3.0549-0.9009,3.2512-2.4306
			C2416.4312,590.5879,2415.2898,589.1966,2413.6917,589.0151z"/>
		<path fill="#FF931E" d="M2455.3826,593.1094c-1.1624-0.131-2.2231,0.6577-2.3579,1.7692
			c-0.145,1.1041,0.6755,2.1182,1.8423,2.2559c1.1658,0.1384,2.2231-0.6569,2.3652-1.7692
			C2457.3735,594.2611,2456.5454,593.2515,2455.3826,593.1094z"/>
		<path fill="#FF0000" d="M2457.5803,667.3985c0,0-10.4446-2.2306-14.5352,5.1225c-4.0906,7.3561-0.668,15.1415-13.6995,16.2493
			c-13.0417,1.1049-11.7524-14.1459-5.7109-16.3511C2429.6797,670.2176,2451.928,664.9061,2457.5803,667.3985z"/>
		<path fill="#BDCCD4" d="M2473.5869,595.424c-5.4348-0.6324-10.3789,3.0549-11.0403,8.2318
			c-0.6646,5.1769,3.2007,9.8998,8.6321,10.5316c5.4304,0.6324,10.3716-3.055,11.0366-8.2318
			C2482.8799,600.7712,2479.0146,596.0557,2473.5869,595.424z"/>
		<path fill="#F7931E" d="M2535.7598,596.3064c-2.3831-0.2723-4.5771,1.4783-4.8896,3.9343
			c-0.3086,2.4523,1.366,4.665,3.7529,4.9448c2.3867,0.2797,4.5742-1.4828,4.8896-3.9418
			C2539.8289,598.7951,2538.1504,596.5861,2535.7598,596.3064z"/>
		<path fill="#8CC63F" d="M2429.72,710.4806c0,0,50.7915,7.8398,67.9709,3.8146c17.1799-4.0214,27.0107-6.2051,21.1218-25.1938
			c0,0-2.9829,24.6745-18.0811,14.6697c-15.105-10.0197,3.0044-19.0186,17.4419-27.1052
			c14.4294-8.0905,31.6711-25.4595,8.8167-47.326c0,0-17.939-6.3792-26.6619,5.7587c-8.7258,12.1371,5.6821,25.8917-8.606,40.4156
			C2477.4307,690.053,2467.553,711.2433,2429.72,710.4806z"/>
		<path fill="#00FFFF" d="M2485.6042,670.2176c-2.0557,2.6338-5.9573,3.1821-8.7183,1.2202
			c-2.7573-1.9538-3.3279-5.6709-1.2751-8.3047c2.052-2.6338,5.9543-3.1821,8.7078-1.2202
			C2487.0759,663.8674,2487.6533,667.5912,2485.6042,670.2176z"/>
		<path fill="#D9E021" d="M2466.0413,672.579c-1.2678,1.6309-3.7886,1.8928-5.627,0.5886c-1.8386-1.308-2.2998-3.6837-1.0283-5.3152
			c1.2715-1.6235,3.7893-1.8854,5.624-0.5886C2466.8589,668.5718,2467.3164,670.9474,2466.0413,672.579z"/>
		<path fill="#FF931E" d="M2452.28,664.2052c-0.9731,1.2462-2.8333,1.5036-4.1487,0.5736c-1.3118-0.93-1.584-2.6956-0.6028-3.9559
			c0.9734-1.2537,2.8259-1.5111,4.1414-0.5811C2452.9854,661.1718,2453.2612,662.9441,2452.28,664.2052z"/>
		<path fill="#ED1E79" d="M2492.1875,657.0552c0,0-11.9705-23.5116-12.4468-32.4852c-0.4829-8.9802-0.8169-14.0991,10.2339-14.1355
			c0,0-12.7368,5.2244-5.075,11.0367c7.6694,5.8234,9.7073-4.3703,11.8254-12.6274c2.1138-8.2653,8.7585-19.3162,23.9514-11.5382
			c0,0,6.1536,7.7415,1.0029,13.8558c-5.1553,6.092-14.7136,1.1949-20.2937,10.3679
			C2495.8018,630.7134,2485.9861,638.7606,2492.1875,657.0552z"/>
		<path fill="#8C6239" d="M2470.8118,637.3328c0,0,1.8816,24.4997,11.7375,19.4426
			C2492.3979,651.7221,2475.5452,637.6304,2470.8118,637.3328z"/>
		<path fill="#9E005D" d="M2507.8994,697.566c-1.7036,0.6101-3.6396-0.3051-4.3301-2.0565
			c-0.6868-1.744,0.1338-3.6546,1.8311-4.2721c1.7039-0.6101,3.636,0.3162,4.3301,2.0594
			C2510.4172,695.0483,2509.5996,696.9552,2507.8994,697.566z"/>
		<path fill="#8C6239" d="M2529.1299,709.4271c-4.7734-5.8234-3.6909-14.2374,2.4121-18.7856
			c6.1001-4.5556,14.9131-3.5236,19.6868,2.2961c4.7734,5.8271,3.6946,14.23-2.4084,18.7819
			C2542.717,716.2713,2533.8999,715.2468,2529.1299,709.4271z"/>
		<path fill="#754C24" d="M2533.7546,684.2474c-1.217-1.4963-0.9441-3.6397,0.6177-4.8026
			c1.5586-1.1696,3.8145-0.9077,5.0354,0.5848c1.2173,1.4896,0.948,3.6367-0.6174,4.8063
			C2537.2278,685.9988,2534.9756,685.7369,2533.7546,684.2474z"/>
		<path fill="#FCEE21" d="M2513.7051,695.648c-0.5632-0.6763-0.4324-1.6569,0.2759-2.1874c0.7122-0.523,1.7366-0.407,2.2886,0.2686
			c0.5632,0.6725,0.4324,1.6532-0.2722,2.1836C2515.2815,696.4396,2514.2571,696.3235,2513.7051,695.648z"/>
		<path fill="#F15A24" d="M2552.5479,656.7397c0,0-6.8667-12.8387-1.3118-23.4871c5.551-10.6625,14.7678-23.098-0.3594-28.3403
			c-9.2205-3.1895-18.7454,12.2324-10.739,19.1421C2548.1484,630.9641,2544.5771,648.3875,2552.5479,656.7397z"/>
		<path fill="#662D91" d="M2539.7998,642.0775c-0.8103,0.3124-1.2097,1.1837-0.8794,1.9612
			c0.3198,0.7738,1.2424,1.1555,2.0527,0.8504c0.8103-0.3162,1.2134-1.1882,0.8831-1.9619
			C2541.5327,642.1459,2540.6138,641.7754,2539.7998,642.0775z"/>
		<path fill="#39B54A" d="M2534.5828,634.7169c-0.5117,0.1927-0.7515,0.741-0.552,1.2313c0.2002,0.4799,0.7813,0.712,1.2864,0.5231
			c0.5081-0.1994,0.7551-0.7448,0.5559-1.2314C2535.6692,634.7638,2535.0918,634.5242,2534.5828,634.7169z"/>
		<path fill="#00FFFF" d="M2525.7148,623.4585c-0.5625,0.2105-0.8318,0.8139-0.6101,1.3481
			c0.2256,0.5372,0.8572,0.7953,1.4167,0.5848c0.5593-0.218,0.8325-0.8214,0.6069-1.3586
			C2526.9067,623.5024,2526.2744,623.2442,2525.7148,623.4585z"/>
		<path fill="#C1272D" d="M2466.0703,682.13c0,0-3.2729,14.4041-6.3354,18.5386c-3.0623,4.1412-4.781,6.5243-9.6958,2.8734
			c0,0,7.5562,1.9106,6.2771-3.2149c-1.2788-5.1263-5.8962-1.2827-9.856,1.6748c-3.9456,2.9641-10.9348,5.656-14.8296-2.8378
			c0,0,0.0981-5.4781,4.6143-6.4773c4.5117-0.9918,6.9565,4.3562,12.7837,2.1435
			C2454.8521,692.6072,2462.1433,692.2984,2466.0703,682.13z"/>
		<path fill="#662D91" d="M2473.7104,624.9048c0,0-9.6125-15.1206-16.5549-14.9495c-6.946,0.1741-3.5601,5.7758,3.2007,8.1596
			C2467.1238,620.4869,2472.1086,622.8625,2473.7104,624.9048z"/>
		<path fill="#7AC943" d="M2400.0576,609.6213c0,1.7834,1.5149,3.2253,3.3784,3.2253c1.8677,0,3.3899-1.4419,3.3899-3.2253
			c0-1.7841-1.5222-3.2231-3.3899-3.2231C2401.5725,606.3982,2400.0576,607.8372,2400.0576,609.6213z"/>
		<path fill="#0071BC" d="M2213.7781,277.9462c0-1.9441,1.3838-3.517,3.1025-3.517c1.7104,0,3.0986,1.5728,3.0986,3.517
			c0,1.9396-1.3882,3.5125-3.0986,3.5125C2215.1619,281.4587,2213.7781,279.8859,2213.7781,277.9462z"/>
		<path fill="#7AC943" d="M2320.094,697.9544c0,0,27.0723,12.4973,49.4656-7.2839c22.3889-19.7916-6.2488-39.0533-24.4751-14.5857
			C2326.8623,700.5592,2327.3816,697.4351,2320.094,697.9544z"/>
		<path fill="#998675" d="M2342.9194,665.6508c0,0,22.9089-16.6637,20.8271-28.6379
			C2361.6582,625.0313,2327.2981,638.5716,2342.9194,665.6508z"/>
		<path fill="#534741" d="M2141.52,297.4149c0,0-24.9185,14.9562-31.032,23.4789c-6.1145,8.5227-9.6528,13.3402-0.5015,20.9834
			c0,0-7.2476-13.9138,2.8228-14.3751c10.0701-0.4613,5.2817,10.9891,1.7729,20.5913c-3.5059,9.6016-5.0205,25.0815,12.5515,27.8604
			c0,0,10.0515-3.4001,9.6558-12.9697c-0.3958-9.5651-11.4541-11.3053-10.2444-24.2021
			C2127.7512,325.8928,2124.718,311.194,2141.52,297.4149z"/>
		<path fill="#00FF00" d="M2237.283,277.0958c0,0-33.4993,62.5218-57.6873,61.8313c-24.1909-0.7083-12.4026-23.8969,11.1677-33.7306
			C2214.3301,295.3621,2231.699,285.5277,2237.283,277.0958z"/>
		<path fill="#754C24" d="M2145.7668,277.0519c0,0-10.103,28.2711-18.2195,18.7202
			C2119.4316,286.2249,2140.9456,275.6755,2145.7668,277.0519z"/>
		<path fill="#A67C52" d="M2199.5002,294.29c0,0-18.3496,1.4933-26.498,16.0179c-8.1448,14.5313-15.9226,34.712-31.1809,20.7692
			c-9.3-8.4974,1.5552-31.2828,14.1497-26.9966C2168.5664,308.3749,2185.3582,291.1257,2199.5002,294.29z"/>
		<path fill="#29ABE2" d="M2174.9568,257.9575c0,0-32.6301-24.391-45.7122-16.9003c-13.0791,7.4803-1.323,16.7113,13.823,15.1712
			C2158.2166,254.7025,2169.9727,254.9822,2174.9568,257.9575z"/>
		<path fill="#C69C6D" d="M2239.5164,285.9778c0,0-15.4866,25.9646-6.51,35.7953c8.9883,9.8269,7.1245,15.4435-1.8564,20.7037
			c-8.9875,5.2639-25.408-12.6386-10.5352-31.5842C2235.4846,291.9434,2239.5164,285.9778,2239.5164,285.9778z"/>
		<path fill="#C7B299" d="M2111.2036,140.6301c0,0-4.5452,25.1938,7.9849,41.0004c12.5261,15.8073,31.1155,32.9978,11.4036,48.8877
			c-12.0173,9.6893-32.3074-12.5076-23.6099-28.0345C2115.6753,186.9599,2103.1714,158.613,2111.2036,140.6301z"/>
		<path fill="#8C6239" d="M2121.2844,155.3504c0,0,9.3225,27.2719,15.5051,34.4835c6.176,7.211,9.6633,11.3783,16.7881,2.7752
			c0,0-11.9563,5.9656-11.2407-4.4536c0.7158-10.4267,9.3948-4.258,16.7224,0.3884c7.3308,4.6471,19.5847,7.8724,23.7156-9.9214
			c0,0-1.6533-10.7168-9.373-11.338c-7.7236-0.6212-10.3062,10.5829-20.5259,7.9491
			C2142.6531,172.5997,2130.5339,174.1361,2121.2844,155.3504z"/>
		<path fill="#662D91" d="M2147.5325,199.3158c0,0,24.5652,21.3725,22.9958,34.3995c-1.5728,13.0277-10.71,5.4462-13.6086-7.8032
			C2154.0203,212.6738,2150.7913,202.7702,2147.5325,199.3158z"/>
		<path fill="#D4145A" d="M2173.2747,200.8305c-1.5513-0.1926-2.6704-1.7729-2.4993-3.5273
			c0.1704-1.7581,1.5654-3.0296,3.1204-2.834c1.5513,0.189,2.6741,1.7731,2.5037,3.5274
			C2176.2246,199.7591,2174.8259,201.0233,2173.2747,200.8305z"/>
		<path fill="#FF931E" d="M2131.0972,136.5685c0,0,21.6121,13.4488,13.0708,20.7729
			C2135.6274,164.6692,2129.4841,141.3786,2131.0972,136.5685z"/>
		<path fill="#A67C52" d="M2217.7302,16.8759c0,0,19.4648-0.3921,25.8701,20.8309c6.4082,21.2305-14.5901,38.0437-18.4917,15.1199
			C2221.207,29.9036,2223.6479,30.7429,2217.7302,16.8759z"/>
		<path fill="#ED1C24" d="M2193.3391,210.897c0,0-13.6816,20.6532-15.5669,29.274c-1.8779,8.6172-3.0081,13.5217,6.0198,15.5454
			c0,0-9.5361-7.3605-2.3103-11.6252c7.2222-4.258,7.2036,5.9863,7.5564,14.3788c0.3518,8.3917,3.9485,20.3042,17.6487,15.4904
			c0,0,6.3174-6.4082,3.1167-13.2561c-3.1934-6.8449-11.8142-3.8071-14.8477-13.7032
			C2191.9189,237.0901,2185.2346,227.5251,2193.3391,210.897z"/>
		<path fill="#603813" d="M2197.5278,233.4251c-2.7461-6.4707-0.3376-14.2412,5.3733-17.3549
			c5.7178-3.1055,12.5732-0.3809,15.323,6.0965c2.7507,6.4625,0.3416,14.2337-5.3687,17.3467
			C2207.1331,242.6271,2200.2778,239.8951,2197.5278,233.4251z"/>
		<path fill="#754C24" d="M2184.054,152.4621c0,0,27.9072,0.9851,36.6226,5.5407c8.7153,4.5555,13.718,7.0912,8.5227,18.4039
			c0,0,1.0825-15.9524-8.0466-11.3932c-9.126,4.5743-0.4575,12.3849,6.3577,19.1927c6.8115,6.801,14.114,19.8064-0.4285,30.9637
			c0,0-10.2415,1.9396-13.5798-6.7683c-3.3318-8.6864,5.8308-15.7054-0.2039-26.5747
			C2207.2566,170.9718,2204.2925,156.4077,2184.054,152.4621z"/>
		<path fill="#8CC63F" d="M2198.9231,244.2617c0,0,5.7793,7.7489,12.3989,4.2654c6.6187-3.4842,8.4609-11.5999,17.7319-5.0176
			c9.2749,6.5868,0.3379,17.921-4.8569,16.2032C2219.009,257.9903,2201.3679,249.4639,2198.9231,244.2617z"/>
		<path fill="#00A99D" d="M2216.1135,665.8472c0,0,30.3564-11.9266,54.2356-0.0111c23.8828,11.9199,51.427,31.1378,65.2537,2.369
			c8.4319-17.5364-25.9607-37.6732-42.8022-22.8911C2275.9546,660.0997,2236.2612,651.2899,2216.1135,665.8472z"/>
		<path fill="#8CC63F" d="M2208.1614,330.0273c0,0-2.4775,13.6378,12.3953,34.7008c14.8691,21.0675-3.7163,26.6506-11.7776,22.31
			C2200.7251,382.6998,2189.5723,347.3814,2208.1614,330.0273z"/>
		<path fill="#0071BC" d="M2210.0178,290.9843c0,0-37.1755-0.6138-50.8132,4.9588c-13.634,5.5764-14.2517-29.7427,10.5352-25.4081
			C2194.531,274.8727,2180.272,277.354,2210.0178,290.9843z"/>
		<path fill="#FBB03B" d="M2175.9375,163.336c0,0,11.7747,8.0465,13.0134,21.6732c1.2424,13.6385,16.1116,20.4604,19.8281,13.6385
			C2212.4954,191.8354,2203.8237,163.336,2175.9375,163.336z"/>
		<path fill="#FFFF00" d="M2156.6868,101.2427c0,0,13.1221-28.4385-7.6648-51.9575c-20.7729-23.5161-41.0115,6.5682-15.3096,25.702
			C2159.415,94.1255,2156.1311,93.5846,2156.6868,101.2427z"/>
		<path fill="#39B54A" d="M2152.3098,102.8773c0,0-17.5037-24.0644-30.0769-21.874
			C2109.6523,83.1907,2123.8713,119.2865,2152.3098,102.8773z"/>
		<path fill="#FF1D25" d="M2167.0806,117.8737c0,0,29.5576-55.1761,50.9004-54.5623c21.3472,0.6213,10.9458,21.0817-9.8523,29.7606
			C2187.3306,101.7546,2172.0029,110.4335,2167.0806,117.8737z"/>
		<path fill="#754C24" d="M2200.4199,102.6958c0,0,16.1951-1.3154,23.3777-14.1318c7.1858-12.8246,14.0552-30.6326,27.5188-18.3318
			c8.2029,7.5093-1.3772,27.6059-12.4861,23.8241C2227.7134,90.2707,2212.8984,105.4896,2200.4199,102.6958z"/>
		<path fill="#29ABE2" d="M2165.1082,110.034c0,0,13.667-22.9127,5.7432-31.5842c-7.9268-8.6722-6.2883-13.6274,1.6392-18.2738
			c7.9304-4.6464,22.4177,11.1528,9.2964,27.8715C2168.6609,104.7701,2165.1082,110.034,2165.1082,110.034z"/>
		<path fill="#534741" d="M2166.0159,61.4112c0,0,3.1577-8.4536-2.0378-13.0888c-5.1843-4.6359-11.73-2.9976-10.8262-14.1831
			c0.9011-11.1818,12.6357-7.6366,13.5405-2.18C2167.5962,37.413,2168.7227,57.052,2166.0159,61.4112z"/>
		<path fill="#FBB03B" d="M2192.7759,71.1548c0,0,2.1838-12.021-10.9385-30.6177c-13.1221-18.59,3.2842-23.5161,10.3901-19.6866
			C2199.3374,24.6791,2209.1785,55.8534,2192.7759,71.1548z"/>
		<path fill="#0000FF" d="M2191.1338,105.616c0,0,32.8088,0.5416,44.8374-4.3733c12.0359-4.9269,12.5842,26.2436-9.2927,22.4142
			C2204.8044,119.8357,2217.385,117.6445,2191.1338,105.616z"/>
		<path fill="#3FA9F5" d="M2256.5076,635.0294c0,0,19.7847-21.9715,35.1628-20.511c15.3779,1.4635,48.343,7.3308,52.0081,0
			c0,0-10.2593-21.2453,14.6482-19.7774c24.9072,1.4709,30.0327,25.6335,12.4495,31.4971
			c-17.5796,5.8629-28.5613,8.0644-53.4685,2.9314C2292.4038,624.0433,2268.9614,625.5038,2256.5076,635.0294z"/>
		<path fill="#F7931E" d="M2246.2595,622.5798c0,0,13.9136-11.7234,10.9861-21.2416c-2.9321-9.5219,32.9604-15.3818,36.6226-7.3278
			S2273.3572,618.9177,2246.2595,622.5798z"/>
		<path fill="#FF0000" d="M2246.9893,675.3141c0,0,60.0591,8.0584,60.7964,27.1052
			C2308.5164,721.4668,2275.5549,722.1892,2246.9893,675.3141z"/>
		<path fill="#0000FF" d="M2367.1179,711.9412c0,0,25.6372-31.5009,46.1453-23.4432
			C2433.7742,696.5594,2403.7412,720.7324,2367.1179,711.9412z"/>
		<path fill="#00FFFF" d="M2194.2512,388.916c0,0-9.5217-30.7672-21.9751-38.0906c-12.4541-7.3278-44.6848,10.9854-21.2417,30.0255
			C2174.4768,399.9021,2170.0776,384.5203,2194.2512,388.916z"/>
		<path fill="#ED1E79" d="M2148.8367,117.8952c0,0,36.6265-5.1255,46.8782,8.0548c10.2524,13.1869-8.7913,41.022-27.8352,32.9643
			C2148.8367,150.8603,2176.6716,128.8814,2148.8367,117.8952z"/>
		<path fill="#C7B299" d="M2211.8271,127.4172c0,0,35.8928,3.6658,33.6948,20.5117
			C2243.3242,164.7704,2225.7483,150.123,2211.8271,127.4172z"/>
		<path fill="#22B573" d="M2134.9192,31.4616c0,0,5.8562-15.3848-2.9285-16.8452c-8.7949-1.4679-23.4395-2.1978-23.4395,6.5897
			C2108.5513,29.9981,2114.4075,24.8681,2134.9192,31.4616z"/>
		<path fill="#3FA9F5" d="M2142.9768,120.8237c0,0-29.2993-24.1663-32.9651-15.3818
			C2106.3499,114.2302,2107.814,132.5471,2142.9768,120.8237z"/>
	</g>
	<g>
		<path fill="#39B54A" d="M308.6073,418.7848c0,0,38.3123-71.5169,65.9807-70.7246c27.6751,0.8102,14.1973,27.3299-12.7733,38.5809
			C334.8584,397.8891,315.0014,409.1364,308.6073,418.7848z"/>
		<path fill="#00FFFF" d="M347.2462,405.8992c0,0,12.9987-1.0535,18.7678-11.3455c5.7617-10.292,11.2763-24.5912,22.0883-14.7129
			c6.5823,6.0198-1.1049,22.1605-10.0271,19.1197C369.153,395.9234,357.2658,408.1409,347.2462,405.8992z"/>
		<path fill="#0071BC" d="M285.7125,455.1106c0,0,15.6511-23.6321,17.8013-33.4807c2.1509-9.8597,3.4366-15.4725-6.8806-17.7902
			c0,0,10.9058,8.4208,2.6375,13.2889c-8.2541,4.886-8.2317-6.8405-8.6462-16.4353c-0.3995-9.6015-4.5117-23.2215-20.1769-17.7172
			c0,0-7.2296,7.3307-3.575,15.16c3.6546,7.8322,13.5143,4.3517,16.9873,15.6831
			C287.3329,425.1461,294.9695,436.092,285.7125,455.1106z"/>
		<path fill="#93278F" d="M280.9173,429.3423c3.139,7.4,0.3854,16.2895-6.1537,19.8466c-6.5324,3.5564-14.3796,0.4427-17.5178-6.961
			c-3.1465-7.4-0.3854-16.2932,6.1396-19.8533C269.9312,418.8175,277.7783,421.9387,280.9173,429.3423z"/>
		<path fill="#0071BC" d="M279.3192,416.9433c0,0-6.5979-8.8538-14.1831-4.883c-7.5637,3.9857-9.6781,13.2747-20.2789,5.7438
			c-10.6082-7.5272-0.3847-20.4895,5.5586-18.5312C256.3448,401.235,276.5291,411.0031,279.3192,416.9433z"/>
		<path fill="#736357" d="M339.7919,408.2354c0,0,26.3381,0.4397,35.9947-3.5058c9.6632-3.9567,10.0993,21.0668-7.455,17.9932
			C350.7706,419.6568,360.8624,417.8949,339.7919,408.2354z"/>
		<path fill="#D4145A" d="M85.7445,411.7553c0,2.2231-1.5914,4.0184-3.546,4.0184c-1.9612,0-3.5452-1.7952-3.5452-4.0184
			c0-2.2231,1.584-4.0214,3.5452-4.0214C84.1531,407.7339,85.7445,409.5322,85.7445,411.7553z"/>
		<path fill="#00A99D" d="M88.6655,573.6224c0,0,15.0908-34.2983,8.0428-46.2361c-7.0406-11.9445-12.8097,0.4509-10.0628,15.0403
			C89.3991,557.0056,90.4162,568.4709,88.6655,573.6224z"/>
		<path fill="#00A99D" d="M64.6517,597.5447c0,0,18.1138-45.3931-0.9955-45.4905
			C44.5551,551.9523,57.8001,592.6439,64.6517,597.5447z"/>
		<path fill="#0071BC" d="M63.744,543.3857c0,0-10.4341-7.3859-13.0426-26.5851c-2.6085-19.1963-10.4259-51.6964-2.6085-48.7426
			C55.9259,471.0116,72.8693,502.0326,63.744,543.3857z"/>
		<path fill="#FF7BAC" d="M92.0582,387.3755c0,0,17.0163-36.8593-9.9252-67.343c-26.9341-30.48-53.1635,8.5085-19.8429,33.317
			C95.6042,378.1549,91.3462,377.4503,92.0582,387.3755z"/>
		<path fill="#009245" d="M86.3836,389.5041c0,0-22.6835-31.1921-38.9804-28.3544
			C31.0989,363.9828,49.5244,410.7673,86.3836,389.5041z"/>
		<path fill="#662D91" d="M231.0818,404.4059c0,0,23.5629-14.1393,29.3387-22.1969c5.784-8.054,9.1335-12.6096,0.4724-19.8391
			c0,0,6.8591,13.1586-2.6665,13.5909c-9.5182,0.4397-4.9916-10.3939-1.6785-19.4686c3.3205-9.0748,4.7446-23.7043-11.8648-26.3389
			c0,0-9.4966,3.2156-9.1327,12.2614c0.3772,9.042,10.8403,10.6915,9.6922,22.8874
			C244.102,377.483,246.9642,391.382,231.0818,404.4059z"/>
		<path fill="#0071BC" d="M105.5293,408.9362c0,0,38.3123-71.5132,65.9799-70.7215c27.6758,0.8102,14.1906,27.3269-12.7658,38.5779
			C131.7804,388.0436,111.9227,399.2908,105.5293,408.9362z"/>
		<path fill="#BDCCD4" d="M210.2144,408.9906c0,0,11.5523-32.3431,20.8383-21.4194
			C240.338,398.4992,215.7216,410.5641,210.2144,408.9906z"/>
		<path fill="#D4145A" d="M148.7462,389.2682c0,0,20.9975-1.7112,30.3126-18.3243c9.3143-16.6168,18.215-39.7073,35.6599-23.7556
			c10.6446,9.725-1.7722,35.7879-16.1808,30.8759C184.13,373.1633,164.927,392.8901,148.7462,389.2682z"/>
		<path fill="#8CC63F" d="M176.8282,430.8244c0,0,37.3242,27.8968,52.2841,19.334c14.9606-8.5658,1.5111-19.116-15.8103-17.3616
			C195.9732,434.5519,182.5244,434.2283,176.8282,430.8244z"/>
		<path fill="#39B54A" d="M102.9789,398.7715c0,0,17.7142-29.6951,7.4401-40.9349c-10.2741-11.2406-8.1447-17.6674,2.1219-23.6865
			c10.2808-6.0198,29.0702,14.451,12.0605,36.1286C107.5925,391.9526,102.9789,398.7715,102.9789,398.7715z"/>
		<path fill="#00A99D" d="M178.7463,496.1727c1.773,0.2217,3.0586,2.0274,2.8555,4.04c-0.1964,2.0014-1.7805,3.4619-3.5601,3.2335
			c-1.7804-0.215-3.0594-2.0349-2.8704-4.04C175.3677,497.3974,176.9733,495.9443,178.7463,496.1727z"/>
		<path fill="#A67C52" d="M141.0077,606.0533c0,0-22.2624,0.4501-29.6006-23.8323c-7.3166-24.2891,16.6964-43.5182,21.165-17.2924
			C137.0331,591.1544,134.2505,590.1917,141.0077,606.0533z"/>
		<path fill="#D9E021" d="M155.8009,484.6569c0,0,15.6503-23.6284,17.7938-33.4844c2.1576-9.856,3.444-15.4688-6.8806-17.7834
			c0,0,10.9057,8.4177,2.6449,13.2896c-8.2615,4.8822-8.2325-6.8412-8.632-16.4353c-0.4144-9.6015-4.5266-23.2289-20.1985-17.7217
			c0,0-7.2222,7.3352-3.5675,15.16c3.6546,7.8367,13.5143,4.3562,16.9873,15.6801
			C157.4214,454.6961,165.0572,465.6421,155.8009,484.6569z"/>
		<path fill="#ED1C24" d="M150.9983,458.8849c3.1457,7.4073,0.3921,16.2895-6.1396,19.8466
			c-6.5391,3.5638-14.3862,0.4464-17.5252-6.961c-3.1457-7.4-0.3921-16.2857,6.1396-19.8466
			C140.0196,448.3601,147.8593,451.485,150.9983,458.8849z"/>
		<path fill="#D4145A" d="M166.4232,551.4977c0,0-31.9256-1.1295-41.894-6.3391c-9.9757-5.2059-15.6942-8.1083-9.7511-21.0564
			c0,0-1.2351,18.2552,9.199,13.0352c10.4408-5.2319,0.523-14.1682-7.266-21.9499c-7.7891-7.7854-16.1444-22.6515,0.4866-35.4173
			c0,0,11.7197-2.2119,15.5417,7.7348c3.7997,9.9505-6.6842,17.9642,0.2254,30.3997
			C139.8745,530.329,143.2747,546.9822,166.4232,551.4977z"/>
		<path fill="#9E005D" d="M149.4143,446.4934c0,0-6.612-8.8612-14.1824-4.883c-7.5711,3.9857-9.6856,13.2747-20.2863,5.7438
			c-10.6156-7.5346-0.3921-20.4969,5.5585-18.5312C126.4324,430.7842,146.6168,440.5464,149.4143,446.4934z"/>
		<path fill="#FCEE21" d="M115.2142,520.72c0,0-13.8773,8.6976-25.6477-3.8108c-11.7562-12.4973-2.3109-33.6801,8.2176-18.8653
			C108.312,512.855,106.2845,513.3052,115.2142,520.72z"/>
		<path fill="#FF0000" d="M86.6455,562.1244c0,0-16.2322-41.3173-0.0074-73.8241c16.2248-32.5216,42.3954-70.0125,3.2335-88.8383
			c-23.8754-11.4764-51.2894,35.3444-31.163,58.2675C78.8274,480.6608,66.8391,534.6956,86.6455,562.1244z"/>
		<path fill="#C7B299" d="M292.3171,397.9509c0,0,2.834-15.596-14.1824-39.697c-17.0089-24.1008,4.258-30.4837,13.4704-25.5174
			C300.8182,337.6953,313.5773,378.1042,292.3171,397.9509z"/>
		<path fill="#662D91" d="M136.7214,393.05c0,0,42.5189,0.7046,58.1187-5.6746c15.5923-6.3799,16.2969,34.0253-12.0538,29.059
			C154.4274,411.4756,170.7392,408.6424,136.7214,393.05z"/>
		<path fill="#3FA9F5" d="M175.7018,539.0629c0,0-13.4637-9.2131-14.8945-24.8017c-1.4099-15.5961-18.4263-23.403-22.6768-15.5961
			C133.88,506.4572,143.8052,539.0629,175.7018,539.0629z"/>
		<path fill="#FCEE21" d="M72.1863,97.9798c0,1.4054-0.9881,2.5319-2.2231,2.5393c-1.2351,0-2.238-1.1228-2.238-2.5252
			c0-1.3988,0.9955-2.5207,2.2231-2.5319C71.1842,95.462,72.1863,96.5922,72.1863,97.9798z"/>
		<path fill="#998675" d="M75.6959,229.4754c0,0-8.9877,0.6101-12.3157-9.071c-3.3205-9.664,6.089-17.8958,8.2906-7.3822
			C73.8648,223.5323,72.7317,223.1982,75.6959,229.4754z"/>
		<path fill="#ED1C24" d="M74.2428,199.5951c0,0,9.4237-21.5504,4.9841-29.0412c-4.4321-7.4803-8.0428,0.3014-6.2921,9.4564
			C74.6788,189.1617,75.3328,196.3616,74.2428,199.5951z"/>
		<path fill="#662D91" d="M59.1951,214.6457c0,0,11.3127-28.5248-0.683-28.5575C46.5164,186.048,54.8865,211.5797,59.1951,214.6457z
			"/>
		<path fill="#93278F" d="M51.9588,178.4479c0,0-6.5615-4.6247-8.2176-16.6711c-1.6643-12.0501-6.6262-32.4346-1.7075-30.5924
			C46.9524,133.0221,57.626,152.4729,51.9588,178.4479z"/>
		<path fill="#534741" d="M76.1103,82.6746c0,0,10.6372-23.1634-6.3144-42.2615C52.8449,21.3113,36.432,45.8221,57.379,61.3564
			C78.3334,76.8795,75.6594,76.4443,76.1103,82.6746z"/>
		<path fill="#FF931E" d="M72.5643,84.0183c0,0-14.2918-19.5557-24.522-17.7462C37.8047,68.0667,49.4448,97.424,72.5643,84.0183z"/>
		<path fill="#00FF00" d="M39.44,214.6859c0,0,49.0581,53.2908,33.9673,73.3442c-15.0842,20.0534-31.541,19.2038-33.8222-5.7111
			C37.3032,257.405,44.7947,227.1325,39.44,214.6859z"/>
		<path fill="#534741" d="M65.5527,327.4034c0,0,29.8335,3.0445,46.2755-17.8846c16.4427-20.9291,33.5974-51.0706,54.9075-24.1262
			c13.0061,16.4249-9.6997,49.8178-28.9608,39.188C118.5206,313.9509,87.554,336.6961,65.5527,327.4034z"/>
		<path fill="#662D91" d="M84.3785,321.144c0,0,30.1891-17.8556,37.6218-28.0999c7.4401-10.2339,11.7487-16.032,0.7343-25.3471
			c0,0,8.6678,16.8787-3.4954,17.3542c-12.1698,0.465-6.3137-13.3253-2.0126-24.8992c4.287-11.5672,6.2125-30.2546-14.9963-33.7604
			c0,0-12.1632,4.0288-11.7413,15.5923c0.4211,11.556,13.7613,13.7501,12.2353,29.3209
			C101.1843,286.868,104.7593,304.647,84.3785,321.144z"/>
		<path fill="#FFFF00" d="M84.6106,96.1852c0,0,23.9558-44.9459,41.3136-44.4846c17.372,0.4717,8.9512,17.1361-7.9565,24.2348
			C101.0534,83.034,88.5926,90.1252,84.6106,96.1852z"/>
		<path fill="#39B54A" d="M111.698,83.7862c0,0,13.1802-1.1086,19.0073-11.5531c5.8271-10.437,11.3849-24.9468,22.3636-14.9599
			c6.6849,6.0957-1.0751,22.4655-10.1283,19.4069C133.8949,73.6215,121.8701,86.0309,111.698,83.7862z"/>
		<path fill="#754C24" d="M95.2917,259.4577c0,0-16.1153-9.4348-20.0973-14.8691c-3.9812-5.4388-6.2847-8.5123-0.4434-13.4964
			c0,0-4.5846,9.0093,1.8965,9.231c6.4885,0.2217,3.328-7.1128,1.0245-13.2598c-2.3176-6.1575-3.3927-16.1012,7.8985-18.0156
			c0,0,6.4878,2.1144,6.2921,8.272c-0.2039,6.1582-7.3025,7.3531-6.4521,15.6436C86.275,241.2458,84.4075,250.7282,95.2917,259.4577
			z"/>
		<path fill="#00FF00" d="M129.3824,109.8304c0,0,23.4759,17.459,32.8557,12.0679c9.3731-5.3949,0.9233-12.0062-9.9542-10.8768
			C141.4072,112.1443,132.9716,111.9553,129.3824,109.8304z"/>
		<path fill="#736357" d="M75.7613,256.6349c0,0,11.1818,14.5827,14.3059,6.9789
			C93.1921,256.0063,78.3989,254.6953,75.7613,256.6349z"/>
		<path fill="#662D91" d="M82.9909,89.8127c0,0,11.0732-18.6725,4.6136-25.7065c-6.4669-7.0473-5.1367-11.0799,1.3006-14.8803
			c6.4446-3.7885,18.2588,9.0353,7.6142,22.6731C85.868,85.5265,82.9909,89.8127,82.9909,89.8127z"/>
		<path fill="#FF00FF" d="M83.6301,50.2438c0,0,2.5646-6.8806-1.6711-10.6446c-4.2357-3.7603-9.5546-2.4195-8.8426-11.5233
			c0.712-9.0971,10.2741-6.2304,11.0151-1.7946C84.88,30.7171,85.8316,46.6978,83.6301,50.2438z"/>
		<path fill="#A67C52" d="M169.9617,195.3333c0,0,3.2261-18.0952-5.7981-29.4258c-9.0242-11.3313-22.3926-23.6433-8.2608-35.087
			c8.6172-6.9781,23.214,8.9334,16.9948,20.0973C166.6851,162.0818,175.6944,182.4113,169.9617,195.3333z"/>
		<path fill="#ED1E79" d="M168.0876,183.4253c0,0-6.7356-19.5668-11.1825-24.737c-4.4611-5.1657-6.9603-8.1522-12.0612-1.9612
			c0,0,8.574-4.3049,8.0726,3.1747c-0.5015,7.4878-6.7422,3.0661-12.0099-0.2507c-5.2684-3.3235-14.0745-5.6196-17.0097,7.1574
			c0,0,1.1994,7.6901,6.7497,8.1261c5.537,0.4397,7.3896-7.6105,14.7278-5.7326
			C152.7199,171.0695,161.4175,169.9543,168.0876,183.4253z"/>
		<path fill="#FF1D25" d="M149.1673,151.8993c0,0-17.6703-15.3096-16.5662-24.6715c1.1123-9.3471,7.6804-3.9157,9.7875,5.5838
			C144.4956,142.3156,146.8273,149.4247,149.1673,151.8993z"/>
		<path fill="#22B573" d="M130.683,150.8487c1.1116,0.1421,1.9181,1.2715,1.802,2.5326c-0.1235,1.2604-1.119,2.1762-2.238,2.0416
			c-1.1116-0.1384-1.9181-1.2715-1.802-2.5319C128.5685,151.6225,129.5714,150.711,130.683,150.8487z"/>
		<path fill="#F15A24" d="M154.1083,264.613c0,0-33.5097-29.5359-31.2724-47.3655c2.2306-17.8452,14.7062-7.3605,18.5937,10.8254
			C145.3163,246.2485,149.6762,259.8394,154.1083,264.613z"/>
		<path fill="#22B573" d="M147.0528,235.3569c0,0,0.5379-13.6809-7.2363-20.8123c-7.7452-7.1351-18.7893-14.419-9.5985-24.6418
			c5.6024-6.2274,17.9173,3.5274,14.4957,12.5188C141.2837,211.413,149.9522,225.1416,147.0528,235.3569z"/>
		<path fill="#00FFFF" d="M115.665,213.1927c4.2572,0.5632,8.1008-2.8845,8.5949-7.6909c0.4873-4.8242-2.5572-9.173-6.8077-9.7392
			c-4.2506-0.5596-8.0867,2.8845-8.5882,7.7013C108.3774,208.2777,111.4219,212.6265,115.665,213.1927z"/>
		<path fill="#93278F" d="M107.1424,219.8777c0,0-13.9726,0.3162-18.6078-14.9168c-4.636-15.2367,10.4117-27.3373,13.2457-10.8842
			C104.6209,210.5298,102.8695,209.9235,107.1424,219.8777z"/>
		<path fill="#00A99D" d="M116.2677,143.6526c0,0,9.7801-14.8513,11.1238-21.0422c1.337-6.1902,2.1368-9.7139-4.3376-11.1528
			c0,0,6.8516,5.2676,1.6644,8.3374c-5.1731,3.0735-5.1806-4.287-5.4424-10.3099c-0.2761-6.0235-2.8697-14.5715-12.6929-11.0917
			c0,0-4.5266,4.6107-2.2164,9.5182c2.296,4.912,8.4862,2.7216,10.6736,9.824
			C117.2416,124.8409,122.0442,131.7037,116.2677,143.6526z"/>
		<path fill="#00A99D" d="M113.2232,127.4785c1.9768,4.6464,0.2619,10.2302-3.8361,12.4682
			c-4.1047,2.2492-9.0308,0.3051-11.0144-4.3413c-1.9835-4.6427-0.2693-10.2302,3.8213-12.4719
			C106.3068,120.8887,111.233,122.8395,113.2232,127.4785z"/>
		<path fill="#00FF00" d="M123.0248,185.5972c0,0-20.046-0.6681-26.3165-3.9232c-6.2631-3.2551-9.8522-5.0675-6.1396-13.2018
			c0,0-0.7552,11.4578,5.7907,8.17c6.5466-3.2945,0.3125-8.8969-4.5988-13.7687c-4.9045-4.8748-10.1647-14.2003,0.2611-22.229
			c0,0,7.3531-1.4136,9.7585,4.828c2.4121,6.2378-4.1561,11.2941,0.189,19.0832
			C106.3284,172.3411,108.4794,182.7929,123.0248,185.5972z"/>
		<path fill="#FFFF00" d="M112.1994,119.7043c0,0-4.1635-5.5548-8.9081-3.0445c-4.752,2.514-6.0526,8.3411-12.7226,3.6293
			c-6.6768-4.7081-0.276-12.8677,3.4589-11.6356C97.7477,109.8736,110.4331,115.973,112.1994,119.7043z"/>
		<path fill="#534741" d="M90.8306,166.3436c0,0-8.6975,5.4819-16.1012-2.3541c-7.3888-7.833-1.5037-21.133,5.1367-11.8581
			C86.493,161.4137,85.214,161.7039,90.8306,166.3436z"/>
		<path fill="#2E3192" d="M72.9564,192.3766c0,0-10.2443-25.917-0.1086-46.341c10.1431-20.4426,26.5196-44.013,1.9106-55.7721
			c-15.0112-7.179-32.1511,22.255-19.4865,36.6189C67.9291,141.2471,60.4889,175.1854,72.9564,192.3766z"/>
		<path fill="#FF931E" d="M96.3237,272.0457c0,0-9.1916,19.2648-0.8065,19.9805C103.8873,292.7569,99.1933,274.44,96.3237,272.0457z
			"/>
		<path fill="#C1272D" d="M153.2363,265.3139c0,0-8.574,0.9122-13.3186-5.0824c-4.7446-5.9908-9.7139-14.6295-15.8029-6.8591
			c-3.7126,4.7342,2.8555,14.2955,8.3702,11.2145C138.007,261.5105,146.9293,268.0095,153.2363,265.3139z"/>
		<path fill="#ED1E79" d="M105.4274,58.1341c0,0,1.7656-9.7942-8.9587-24.8999c-10.7026-15.105,2.6375-19.1413,8.4282-16.0387
			C110.6876,20.3017,118.7527,45.648,105.4274,58.1341z"/>
		<path fill="#754C24" d="M104.1485,86.1693c0,0,26.7094,0.3884,36.4812-3.6367c9.7942-4.0251,10.289,21.3324-7.5197,18.2589
			C115.3012,97.7142,125.5389,95.9121,104.1485,86.1693z"/>
		<path fill="#00FF00" d="M128.8304,177.7798c0,0-8.4721-5.7617-9.3798-15.5455c-0.9084-9.7942-11.5962-14.6697-14.2628-9.7652
			C102.5355,157.3699,108.806,177.8267,128.8304,177.7798z"/>
		<path fill="#00A99D" d="M503.6492,174.7532c0,0-11.9667-15.0545-13.957-21.6337c-2.0133-6.5793-3.1903-10.3248,3.7342-12.6245
			c0,0-6.9967,6.4997-1.09,9.2645c5.9142,2.7603,5.2609-5.2461,5.0139-11.8291c-0.2329-6.5861,1.8377-16.1697,12.838-13.4964
			c0,0,5.3264,4.5125,3.255,10.1104c-2.078,5.5987-8.9944,3.8986-10.7532,11.8797
			C500.9246,154.4058,496.2894,162.4122,503.6492,174.7532z"/>
		<path fill="#F7931E" d="M525.614,147.8265c0,0-12.2353,52.3102-43.4787,36.6881c-31.2568-15.628-53.6717,42.7994-12.9034,44.1542
			C509.9778,230.0275,529.683,177.0455,525.614,147.8265z"/>
		<path fill="#7AC943" d="M457.6787,234.7832c4.5489,3.2662-23.7809-21.7394-21.063-42.1231
			c2.7171-20.3734,19.7045-22.4149,35.3258-21.7357c15.6288,0.6756,9.5182-20.3771,0.683-25.1321
			C463.7893,141.0366,378.1987,177.7181,457.6787,234.7832z"/>
		<path fill="#0000FF" d="M379.4918,384.1307c-1.0245-0.1414-1.9471,0.6727-2.078,1.8311
			c-0.1235,1.1517,0.6034,2.2053,1.6205,2.3503c1.0245,0.1347,1.9471-0.6792,2.078-1.8377
			C381.2358,385.319,380.5096,384.2692,379.4918,384.1307z"/>
		<path fill="#39B54A" d="M375.547,353.0444c-1.1264-0.1563-2.151,0.7448-2.2819,2.0126c-0.1451,1.2752,0.654,2.4344,1.7805,2.5794
			c1.1256,0.1563,2.1435-0.7447,2.2737-2.0125C377.4651,354.3524,376.6727,353.1969,375.547,353.0444z"/>
		<path fill="#00FF00" d="M420.1224,265.4374c3.4797,2.0237,4.8606,6.8591,3.0661,10.8046
			c-1.7879,3.9522-6.0526,5.5072-9.5331,3.4835c-3.4946-2.0237-4.8681-6.8658-3.0802-10.8113
			C412.3623,264.9649,416.6345,263.4137,420.1224,265.4374z"/>
		<path fill="#2E3192" d="M396.2976,422.2549c0,0,80.5046-46.0069,58.9616-93.4088
			c-21.5429-47.3952,8.6246-101.2522,60.3202-90.4848C567.2899,249.1367,537.6968,395.0262,396.2976,422.2549z"/>
		<path fill="#C7B299" d="M388.4147,300.7275c0,0-48.9137,26.9378-43.2458,38.2795
			C350.8428,350.345,385.5808,341.8403,388.4147,300.7275z"/>
		<path fill="#998675" d="M394.1035,418.7595c0,0,58.8307-46.7874,47.4964-65.2137c-11.3417-18.4263-49.625-14.1757-48.913,11.3455
			C393.3989,390.4088,422.4474,369.8502,394.1035,418.7595z"/>
		<path fill="#231F20" d="M442.3045,299.674"/>
		<path fill="#1B1464" d="M431.6747,314.2053c0,9.9795-8.0941,18.0736-18.0773,18.0736c-9.9757,0-18.0773-8.0941-18.0773-18.0736
			c0-9.9869,8.1016-18.0773,18.0773-18.0773C423.5806,296.128,431.6747,304.2184,431.6747,314.2053z"/>
		<path fill="#00A99D" d="M447.9716,341.4921c0.0878,3.171-1.4166-43.2384-29.7606-54.5772
			c-28.3507-11.3418-12.7658-34.7336,6.3725-31.1921C443.721,259.2688,446.555,290.4608,447.9716,341.4921z"/>
		<path fill="#C1272D" d="M83.0995,579.7219c0,0,29.2956,79.1133-6.5971,84.9731c-35.8928,5.8561-10.9861,61.5263,41.7563,47.6125
			C171.0011,698.39,138.0361,615.6183,83.0995,579.7219z"/>
		<path fill="#93278F" d="M174.6557,561.4161c0,0-34.4181,35.1554-27.1015,60.0621
			C154.8783,646.3818,190.7785,617.8124,174.6557,561.4161z"/>
		<path fill="#93278F" d="M176.8573,650.7775c0,0-41.0227,41.7489-26.3746,55.6664
			C165.1375,720.3652,183.447,691.8002,176.8573,650.7775z"/>
		<path fill="#006837" d="M42.8112,586.319c0,0,47.6124,34.4255,36.6263,54.2029C68.4522,660.2994,39.8827,631.73,42.8112,586.319z"
			/>
		<path fill="#1B1464" d="M160.698,69.8099l0.1384,0.16c-2.6525,0.988-4.9559,2.9098-6.3435,5.6166
			c-2.9567,5.7654-0.683,12.835,5.0719,15.7887c5.4276,2.7863,12.0248,0.9226,15.2434-4.1308l0.1674,0.2143l17.6629-22.9558
			l-28.6706,4.7662c-0.6473,0.0506-1.2864,0.16-1.9188,0.3199L160.698,69.8099z"/>
		<path fill="#BDCCD4" d="M182.5028,41.6951l-0.0871,0.1309c-1.2789-1.642-3.1464-2.8228-5.3629-3.197
			c-4.7081-0.7879-9.1692,2.3905-9.9609,7.1024c-0.7343,4.4358,2.049,8.6462,6.3212,9.7838l-0.1094,0.1562l20.0758,7.2765
			l-9.7652-19.0803c-0.1815-0.439-0.3995-0.8645-0.6465-1.2752L182.5028,41.6951z"/>
		<path fill="#2E3192" d="M220.9096,121.9601l0.2254-0.3192c3.1896,4.3666,7.9483,7.6254,13.6735,8.7801
			c12.178,2.4708,24.0428-5.4053,26.513-17.5826c2.325-11.4801-4.534-22.6843-15.5409-25.9974l0.2827-0.4107l-51.5796-20.7
			l23.7229,50.4717c0.4285,1.1733,0.959,2.296,1.5914,3.3823L220.9096,121.9601z"/>
		<path fill="#736357" d="M244.044,71.318l-0.1168-0.2872c4.2796-0.1637,8.516-1.8347,11.8001-5.0712
			c6.9967-6.8955,7.0912-18.1577,0.2031-25.1507c-6.4952-6.5972-16.8638-7.0585-23.9044-1.3154l-0.131-0.3705l-36.3793,24.6455
			l43.5583,6.7795c0.959,0.2321,1.933,0.3809,2.9136,0.4501L244.044,71.318z"/>
		<path fill="#A67C52" d="M172.1781,102.7638h0.2611c-1.2276,3.4917-1.2351,7.4297,0.3125,11.1059
			c3.299,7.8218,12.3231,11.4876,20.1479,8.1886c7.3747-3.11,11.0441-11.3016,8.6826-18.7857l0.3415,0.0038l-8.1953-37.0921
			l-19.3414,32.8341c-0.5015,0.6978-0.9233,1.4315-1.2938,2.2015L172.1781,102.7638z"/>
		<path fill="#FCEE21" d="M214.0505,35.3851l-0.2105-0.0179c1.2135-2.6561,1.5036-5.7624,0.5305-8.7593
			c-2.049-6.3903-8.8865-9.9066-15.2798-7.8508c-6.0235,1.9255-9.4825,8.1165-8.1455,14.1683l-0.2686-0.0253l3.851,29.768
			l17.5253-24.4893c0.4353-0.5126,0.8206-1.0572,1.1771-1.6383L214.0505,35.3851z"/>
		<path fill="#D9E021" d="M431.3622,140.5173c21.7758,9.8485,47.2933-3.2953,55.5176-25.7355
			c4.011-10.9385,3.299-22.4439-1.0677-32.3289c-0.465-1.2678-1.09-2.5796-1.991-3.9857
			c-3.8362-6.7281-9.4892-12.4168-16.5662-16.337c-0.4717-0.3705-0.8571-0.6971-1.3511-1.0751
			C394.4524,7.6586,317.9506,19.3679,317.9506,19.3679c85.6494,26.164,84.2254,84.2463,84.2254,84.2463
			S405.5397,128.8266,431.3622,140.5173z"/>
		<path fill="#1B1464" d="M310.4964,25.8304C344.3401,62.1956,345.0886,98.63,345.0886,98.63s0.247,0.0179,0.5959,0.0402
			c0.8281,9.3218,6.8732,17.8006,16.2463,21.2342c12.9258,4.7409,27.2607-1.9003,32.0053-14.8297
			c2.3109-6.307,1.8965-12.9444-0.6175-18.6443c-0.2686-0.7224-0.6391-1.4895-1.1548-2.296
			c-2.2015-3.8726-6.0526-11.6505-10.129-13.9064C382.0348,70.228,346.8109,29.7358,310.4964,25.8304z"/>
		<path fill="#FF7BAC" d="M325.1735,420.0385c-7.775-0.5707-14.1035,6.3174-14.1035,14.1102c0,3.796,1.5044,7.2333,3.9455,9.7726
			c0.2835,0.334,0.625,0.6644,1.0609,0.9984c1.9256,1.6242,4.2937,2.7357,6.9022,3.139c0.1815,0.0618,0.3415,0.1161,0.5305,0.1778
			c27.8641,8.3233,49.9598-3.8436,49.9598-3.8436c-29.1431,1.6026-35.2246-16.3333-35.2246-16.3333
			S334.3859,420.7214,325.1735,420.0385z"/>
		<path fill="#7AC943" d="M375.0307,441.5814c-14.4369-7.3308-18.7603-18.4002-18.7603-18.4002s-0.0647,0.0216-0.189,0.0543
			c-1.3005-2.7573-4.0973-4.6792-7.3456-4.6792c-4.4901,0-8.1299,3.6435-8.1299,8.1306c0,2.1941,0.872,4.1776,2.2812,5.6382
			c0.1599,0.192,0.3564,0.3809,0.6101,0.5811c1.1123,0.93,3.1465,2.8845,4.6575,3.1137
			C348.1546,436.0199,363.4784,444.4548,375.0307,441.5814z"/>
		<path fill="#603813" d="M431.4426,253.0205c0,0-29.2234-18.1829-17.6778-28.0969
			C425.3097,215.0096,433.6293,246.5134,431.4426,253.0205z"/>
		<path fill="#006837" d="M261.2419,34.7527c0,0,29.5932,14.5789,15.4398,37.7461c0,0-3.0006,3.4254-6.4305-1.2901
			C266.822,66.4901,271.5301,38.6074,261.2419,34.7527z"/>
		<path fill="#1B1464" d="M261.6704,55.3403c0,0,9.4386,16.7225,7.2951,24.4424c-2.1435,7.7199,0.4211,30.0217,12.0099,32.6012
			c11.5821,2.5683,1.7075,12.0069-7.2943,9.4348c-9.01-2.5758-11.5746-13.2963-12.0107-27.879
			C261.2419,79.3608,269.3866,69.0584,261.6704,55.3403z"/>
		<path fill="#A67C52" d="M300.0266,76.9308c0,0,2.9351,18.7998,17.8228,25.7533c14.8803,6.9461,35.2826,12.9473,22.836,30.1021
			c-7.5711,10.4697-30.7635,1.5624-27.5732-11.8871C316.3019,107.4578,298.0572,91.858,300.0266,76.9308z"/>
		<path fill="#006837" d="M278.7307,36.2384c0,0-14.6117-17.91-22.0079-21.7498c-7.4044-3.8399-11.6036-6.0741-16.5952,2.02
			c0,0,10.1498-7.3167,11.6542,0.5669c1.5111,7.8828-8.0577,5.4276-16.0209,3.7632c-7.9632-1.6532-20.3295-1.0677-20.5259,13.0894
			c0,0,3.822,7.5309,11.3128,6.121c7.4907-1.4092,7.6075-10.3239,17.8958-10.8544
			C254.7459,28.6607,265.9716,24.5879,278.7307,36.2384z"/>
		<path fill="#8C6239" d="M176.4644,262.9055c0,0-16.9799-9.9944-21.165-15.7344c-4.1925-5.7468-6.6188-8.9914-0.4427-14.2367
			c0,0-4.854,9.4996,1.9835,9.7429c6.8293,0.247,3.5311-7.4945,1.1041-13.983c-2.427-6.499-3.5311-16.9836,8.3702-18.985
			c0,0,6.8367,2.2521,6.6188,8.7407c-0.218,6.4989-7.7087,7.7414-6.8293,16.4859
			C166.9827,243.6765,164.9924,253.6634,176.4644,262.9055z"/>
		<path fill="#FF0000" d="M132.9284,623.4476c0,0,11.7629,15.41,15.0692,7.3926
			C151.3108,622.8301,135.7111,621.4127,132.9284,623.4476z"/>
		<path fill="#1B1464" d="M537.5948,249.9976c0,0-23.6574-40.7355-15.4688-57.8315c8.196-17.1042,17.1763-2.4523,14.9971,17.0342
			C534.9357,228.6875,534.7542,243.7456,537.5948,249.9976z"/>
		<path fill="#736357" d="M154.58,639.7444c0,0-9.7362,20.3041-0.901,21.0854C162.5141,661.611,157.6029,642.2764,154.58,639.7444z"
			/>
		<path fill="#2E3192" d="M353.9163,351.377c0,0-9.0383,0.9412-14.0373-5.3911c-4.9916-6.3286-10.2086-15.4472-16.6458-7.2698
			c-3.9232,4.9812,2.9716,15.0842,8.7987,11.8507C337.859,347.337,347.2536,354.1998,353.9163,351.377z"/>
		<path fill="#C1272D" d="M263.247,32.348c0,0,19.1747,0.7991,28.1401,15.7523c8.9661,14.9562,17.7142,35.8749,33.1682,20.5549
			c9.417-9.3329-2.6368-32.8669-15.6213-27.8247C295.9427,45.8697,277.8877,28.4136,263.247,32.348z"/>
		<path fill="#00FF00" d="M274.7636,38.1134c0,0,17.9174,14.2412,21.9209,21.4924c3.9961,7.269,6.3211,11.3819-1.3445,16.3408
			c0,0,6.7133-10.0345-0.9806-11.4548c-7.7021-1.424-4.9559,7.9669-3.0519,15.7887c1.904,7.8248,1.802,19.988-11.9161,20.2818
			c0,0-7.4402-3.7089-6.3501-11.0873c1.075-7.3784,9.722-7.5599,9.8455-17.6845C283.0102,61.6577,286.5413,50.5778,274.7636,38.1134
			z"/>
		<path fill="#736357" d="M122.8143,19.3821c0,0,27.4065,16.7619,36.6628,11.28c9.2422-5.4782-0.6756-11.8283-12.1044-10.5278
			C135.9439,21.4384,126.9264,21.4132,122.8143,19.3821z"/>
		<path fill="#009245" d="M419.3226,213.2581c0,0,18.3757,37.8696,32.5655,38.0764c14.1831,0.2031,7.7377-13.8231-5.871-20.2461
			C432.4083,224.6579,422.4251,218.3844,419.3226,213.2581z"/>
		<path fill="#FBB03B" d="M52.191,671.6627c0,0-16.5655,20.6495,6.801,40.5794c0,0,8.8062,4.0073,3.9887,8.0978
			C58.1706,724.4268,19.4952,697.9503,52.191,671.6627z"/>
		<path fill="#A67C52" d="M319.6805,326.9786c0,0-15.4911,21.4633,8.8568,40.1761c0,0,9.0026,3.549,4.4105,7.8836
			C328.3482,379.3647,288.3723,354.8903,319.6805,326.9786z"/>
		<path fill="#F15A24" d="M387.6588,121.6409c0,0,53.4835,32.7538,31.8676,72.2907c0,0-10.4482,6.8256-12.3811-4.6322
			C405.2131,177.8341,420.8634,157.8893,387.6588,121.6409z"/>
		<path fill="#00FF00" d="M396.2395,139.8812c0,0,15.3602,38.0653,0.7849,46.4681c0,0-5.0786,4.3957-10.1357-0.5989
			C381.8317,180.7618,404.7913,162.8087,396.2395,139.8812z"/>
		<path fill="#534741" d="M388.4944,182.2335c0,0,2.296-36.0929-16.0067-44.074c-18.3094-7.9817-19.7119,6.092-10.8038,9.8486
			C370.6135,151.772,383.3792,157.3157,388.4944,182.2335z"/>
		<path fill="#1B1464" d="M125.9384,27.0618c0,0,22.1605,12.0069,23.1708,19.5051c1.0029,7.4982,7.6075,10.7317,11.4073,4.8755
			C164.3094,45.5937,155.0308,37.318,125.9384,27.0618z"/>
		<path fill="#C1272D" d="M123.6788,555.4833c0,0,17.7723,8.3553,26.4914,3.4805c8.7042-4.8793,8.7042-13.5909,13.5864-13.242
			c4.883,0.3489,0.7053,21.601-12.1914,20.2097C138.6752,564.5402,123.6788,555.4833,123.6788,555.4833z"/>
	</g>
	<g>
		<path fill="#22B573" d="M1944.322,350.1639c6.8301,3.9671,9.5219,13.4525,6.0198,21.1903
			c-3.5057,7.731-11.8759,10.7793-18.7052,6.8122c-6.8301-3.9641-9.5256-13.4562-6.0198-21.1799
			C1929.1226,349.2376,1937.4927,346.1931,1944.322,350.1639z"/>
		<path fill="#29ABE2" d="M1593.3058,636.9764c0.0222,2.6815-2.2484,4.883-5.0638,4.8972c-2.816,0.029-5.1188-2.1361-5.1411-4.8242
			c-0.0253-2.6888,2.238-4.8755,5.0608-4.9045C1590.9807,632.1232,1593.2804,634.2883,1593.3058,636.9764z"/>
		<path fill="#006837" d="M1574.5603,660.7648c0.0178,2.6807-2.2491,4.8748-5.0608,4.8971
			c-2.8228,0.0291-5.1226-2.136-5.1442-4.8249c-0.0215-2.6882,2.238-4.8897,5.0571-4.9113
			C1572.2316,655.9108,1574.535,658.0692,1574.5603,660.7648z"/>
		<path fill="#9E005D" d="M1610.8094,691.5566c0.0431,4.8539-4.0511,8.8351-9.1514,8.8716
			c-5.0973,0.0364-9.2712-3.8726-9.3076-8.7407c-0.0469-4.8532,4.0579-8.8351,9.1588-8.8716
			C1606.6095,682.7802,1610.7693,686.6818,1610.8094,691.5566z"/>
		<path fill="#FF1D25" d="M1590.8468,651.9586c-6.0637-0.712-11.5822,3.4076-12.3269,9.1982
			c-0.7373,5.7766,3.5751,11.0442,9.6417,11.7562c6.0601,0.6971,11.582-3.415,12.3231-9.1983
			C1601.2258,657.9308,1596.9098,652.6632,1590.8468,651.9586z"/>
		<path fill="#C7B299" d="M1569.7361,655.1847c0,0,17.1503-0.2693,13.9972-6.7141
			C1580.5764,642.026,1570.1171,652.1907,1569.7361,655.1847z"/>
		<path fill="#F15A24" d="M1605.2836,646.4217c-2.2781-0.2612-4.345,1.2864-4.621,3.444c-0.2836,2.1799,1.3369,4.1561,3.6144,4.418
			c2.2744,0.2611,4.3451-1.279,4.6211-3.4515C1609.1741,648.6671,1607.561,646.6977,1605.2836,646.4217z"/>
		<path fill="#F15A24" d="M1590.1995,632.1373c-4.1158-0.4791-7.8575,2.3109-8.3627,6.249
			c-0.5015,3.9232,2.4307,7.4982,6.5391,7.9706c4.116,0.4717,7.8621-2.3184,8.3628-6.2416
			C1597.2438,636.1915,1594.3162,632.6239,1590.1995,632.1373z"/>
		<path fill="#F15A24" d="M1575.8787,610.3399c-2.3793-0.276-4.5481,1.3445-4.842,3.6115
			c-0.2909,2.2811,1.4092,4.3451,3.7886,4.6285c2.3801,0.2686,4.5488-1.3444,4.8428-3.6189
			C1579.9589,612.694,1578.2655,610.616,1575.8787,610.3399z"/>
		<path fill="#8CC63F" d="M1866.76,478.9313c5.2281,3.0445,7.2914,10.3031,4.6107,16.2173
			c-2.6815,5.929-9.0859,8.2541-14.3208,5.217c-5.2245-3.0371-7.2877-10.2883-4.6033-16.2173
			C1855.1281,478.2342,1861.5326,475.8943,1866.76,478.9313z"/>
		<path fill="#A67C52" d="M1567.7124,560.0609c0,0-4.1814,10.7101-14.6482,9.4453c-10.4548-1.235-12.9146-16.4494-2.2922-13.4555
			C1561.3912,559.0438,1560.4902,560.1918,1567.7124,560.0609z"/>
		<path fill="#00FF00" d="M1562.0229,640.6823c0,0-20.6234-19.1531-22.5891-34.3675c-1.9619-15.2292,14.2412-31.4316,0.9844-39.7728
			C1527.1621,558.1934,1519.3038,619.0881,1562.0229,640.6823z"/>
		<path fill="#FF7BAC" d="M1618.4891,574.8832c0,0-8.8427,37.8108-31.4242,26.5271c-22.5897-11.2979-38.7921,30.9309-9.33,31.9041
			C1607.1942,634.3024,1621.4392,596.005,1618.4891,574.8832z"/>
		<path fill="#2E3192" d="M1569.3872,637.7465c3.2877,2.3541-17.1838-15.7233-15.2181-30.4436
			c1.9613-14.7344,14.2367-16.2173,25.528-15.7158c11.2948,0.4873,6.8768-14.7278,0.4902-18.1718
			C1573.8081,569.9861,1511.9403,596.4916,1569.3872,637.7465z"/>
		<path fill="#998675" d="M1782.7607,597.8427c0,9.9832-8.0903,18.0773-18.0735,18.0773c-9.9833,0-18.0774-8.0941-18.0774-18.0773
			c0-9.9899,8.0941-18.0766,18.0774-18.0766C1774.6704,579.7661,1782.7607,587.8528,1782.7607,597.8427z"/>
		<path fill="#F15A24" d="M1467.8151,427.5623c0,8.4215-6.8226,15.2441-15.2396,15.2441c-8.4141,0-15.2404-6.8226-15.2404-15.2441
			c0-8.4171,6.8263-15.2322,15.2404-15.2322C1460.9924,412.3301,1467.8151,419.1453,1467.8151,427.5623z"/>
		<path fill="#0071BC" d="M1919.0776,283.0828c0,9.3872-7.615,17.0052-17.0134,17.0052c-9.3947,0-17.0089-7.618-17.0089-17.0052
			c0-9.4021,7.6143-17.0201,17.0089-17.0201C1911.4626,266.0627,1919.0776,273.6807,1919.0776,283.0828z"/>
		<path fill="#29ABE2" d="M1588.1691,542.6234c0,5.0861-4.1271,9.2124-9.2206,9.2124c-5.0861,0-9.2124-4.1263-9.2124-9.2124
			c0-5.101,4.1263-9.2131,9.2124-9.2131C1584.042,533.4103,1588.1691,537.5225,1588.1691,542.6234z"/>
		<path fill="#93278F" d="M1949.2451,81.7085c0,0-24.6603-45.4333-16.2106-62.9689c8.458-17.5431,17.8125-1.1696,15.5997,19.4285
			C1946.4224,58.7594,1946.2728,74.7914,1949.2451,81.7085z"/>
		<path fill="#603813" d="M1915.0414,67.5872c0,0,5.2565-13.9793-0.3527-24.8055c-5.6091-10.8224-14.582-23.2505-1.5149-29.8261
			c7.9669-3.9998,17.3981,11.5568,10.7533,19.3853C1917.2756,40.1702,1921.5656,58.2468,1915.0414,67.5872z"/>
		<path fill="#ED1C24" d="M1843.1316,243.8115c0,0-15.4978,0.6213-20.8636-16.1808c-5.3651-16.8058,11.1423-30.524,14.5388-12.3372
			C1840.2002,233.4935,1838.2419,232.8656,1843.1316,243.8115z"/>
		<path fill="#C69C6D" d="M1877.6554,286.5521c0,3.7633-3.0482,6.804-6.8048,6.804c-3.7565,0-6.804-3.0408-6.804-6.804
			c0-3.7565,3.0475-6.801,6.804-6.801C1874.6072,279.7511,1877.6554,282.7956,1877.6554,286.5521z"/>
		<path fill="#FF0000" d="M1901.7123,250.6371c0,4.1888-3.4001,7.5927-7.5963,7.5927c-4.1925,0-7.5927-3.4039-7.5927-7.5927
			c0-4.2029,3.4001-7.6068,7.5927-7.6068C1898.3121,243.0303,1901.7123,246.4342,1901.7123,250.6371z"/>
		<circle fill="#39B54A" cx="1865.9482" cy="256.3266" r="4.1144"/>
		<path fill="#754C24" d="M1620.8573,706.8729c0,0-195.2234-58.0242-178.4503-210.5182c0,0,27.7294-81.8163,79.4548-66.2344
			c51.7141,15.5774,71.5243,92.609,14.6005,125.4654C1479.5385,588.4339,1561.0311,694.238,1620.8573,706.8729z"/>
		<path fill="#2E3192" d="M1781.2787,646.5526c-1.0208-0.1451-1.947,0.683-2.0742,1.8311
			c-0.1235,1.1554,0.5989,2.2089,1.6196,2.3466c1.0245,0.1384,1.9508-0.6756,2.0714-1.8378
			C1783.022,647.7445,1782.2958,646.6977,1781.2787,646.5526z"/>
		<path fill="#3FA9F5" d="M1777.3333,615.4699c-1.1228-0.16-2.1398,0.741-2.2782,2.0125c-0.1339,1.2715,0.6614,2.427,1.7842,2.5795
			c1.1152,0.16,2.1398-0.741,2.2706-2.0059C1779.2513,616.7779,1778.4559,615.6224,1777.3333,615.4699z"/>
		<path fill="#93278F" d="M1821.9086,527.8592c3.4879,2.0275,4.8644,6.8591,3.0736,10.8113
			c-1.7842,3.9529-6.0601,5.5079-9.5436,3.473c-3.4841-2.02-4.8606-6.859-3.0735-10.7971
			C1814.156,527.3942,1818.4244,525.8392,1821.9086,527.8592z"/>
		<path fill="#D4145A" d="M1798.0912,684.6833c0,0,80.5016-46.021,58.9587-93.4088
			c-21.5468-47.4019,8.6172-101.2626,60.3239-90.4878C1969.0769,511.569,1939.4904,657.4517,1798.0912,684.6833z"/>
		<path fill="#C7B299" d="M1795.8934,681.1813c0,0,58.8314-46.7844,47.4963-65.2099
			c-11.3418-18.4263-49.6213-14.1757-48.913,11.3417C1795.1851,652.8306,1824.2485,632.2757,1795.8934,681.1813z"/>
		<path fill="#231F20" d="M1844.0944,562.0958"/>
		<path fill="#BDCCD4" d="M1833.4646,576.6271c0,9.9832-8.0941,18.0773-18.0736,18.0773c-9.9868,0-18.0802-8.0941-18.0802-18.0773
			s8.0934-18.0773,18.0802-18.0773C1825.3705,558.5498,1833.4646,566.6439,1833.4646,576.6271z"/>
		<path fill="#009245" d="M1849.7622,603.9169c0.0908,3.168-1.4172-43.2384-29.7643-54.5802
			c-28.3551-11.3417-12.7628-34.7306,6.3755-31.1846S1848.345,552.8826,1849.7622,603.9169z"/>
		<path fill="#FF931E" d="M1847.6404,530.1984c0,0-8.5085-15.5923-21.267-24.8047c-12.7583-9.2131,14.1758-12.0471,16.3043-6.3799
			C1844.8064,504.6817,1847.6404,530.1984,1847.6404,530.1984z"/>
		<path fill="#662D91" d="M1887.0642,62.472c0,0-8.2207-24.0644-13.6743-30.4325c-5.4529-6.3688-8.5331-10.0412-14.8148-2.4448
			c0,0,10.5502-5.2676,9.9177,3.9195c-0.6279,9.2019-8.2898,3.7603-14.7567-0.3341c-6.47-4.1055-17.2813-6.9498-20.9254,8.7518
			c0,0,1.4537,9.4527,8.2727,10.0048c6.8077,0.5521,9.0889-9.3329,18.1093-7.0079
			C1868.2131,47.2503,1878.9083,45.8954,1887.0642,62.472z"/>
		<path fill="#39B54A" d="M1869.6698,162.1983c0,0-41.0985-36.3793-38.301-58.2898c2.7975-21.9135,18.0989-9.0018,22.8256,13.3513
			C1858.9203,139.6092,1864.2318,156.328,1869.6698,162.1983z"/>
		<path fill="#FCEE21" d="M1861.0817,126.2363c0,0,0.6904-16.8199-8.824-25.6008c-9.5144-8.7846-23.0688-17.7686-11.7375-30.3052
			c6.8984-7.6403,22.0042,4.3808,17.7686,15.4212C1854.0522,96.7882,1864.6753,113.6848,1861.0817,126.2363z"/>
		<path fill="#754C24" d="M1822.5775,98.9139c5.22,0.7009,9.9504-3.5244,10.568-9.4386c0.6212-5.9179-3.11-11.28-8.3308-11.9742
			c-5.2163-0.7009-9.9504,3.5169-10.5717,9.4423C1813.6218,92.8539,1817.353,98.2086,1822.5775,98.9139z"/>
		<path fill="#FF1D25" d="M1868.5985,163.0591c0,0-10.5315,1.1012-16.3483-6.2773c-5.8271-7.3784-11.9012-17.9977-19.4032-8.4758
			c-4.5659,5.8093,3.4657,17.5796,10.2555,13.8126C1849.8925,158.351,1860.8384,166.3544,1868.5985,163.0591z"/>
		<path fill="#998675" d="M1847.6039,336.166c0,1.715-1.2202,3.0959-2.7321,3.0959c-1.5111,0-2.7386-1.3809-2.7386-3.0959
			c0-1.7179,1.2275-3.1018,2.7386-3.1018C1846.3837,333.0642,1847.6039,334.4481,1847.6039,336.166z"/>
		<path fill="#F15A24" d="M1849.8672,461.043c0,0,11.6364-26.4617,6.2051-35.6748c-5.4351-9.2131-9.8887,0.3489-7.7667,11.5962
			C1850.4266,448.2191,1851.2115,457.0617,1849.8672,461.043z"/>
		<path fill="#FCEE21" d="M1831.3361,479.4983c0,0,13.9755-35.0208-0.7627-35.1011
			C1815.8308,444.3175,1826.0498,475.7202,1831.3361,479.4983z"/>
		<path fill="#39B54A" d="M1830.6315,437.7054c0,0-8.0436-5.6962-10.0524-20.5043c-2.0164-14.8111-8.0503-39.8777-2.0164-37.6039
			C1824.6005,381.8791,1837.675,405.8125,1830.6315,437.7054z"/>
		<path fill="#00A99D" d="M1852.4794,317.3589c0,0,13.126-28.4348-7.6581-51.9501c-20.7766-23.519-41.0116,6.554-15.3126,25.699
			C1855.2151,310.249,1851.931,309.7007,1852.4794,317.3589z"/>
		<path fill="#3FA9F5" d="M1848.1053,319.0009c0,0-17.4993-24.0674-30.0768-21.877
			C1805.4518,299.3142,1819.6669,335.3997,1848.1053,319.0009z"/>
		<path fill="#754C24" d="M1887.3953,158.5727c0,0,29.5604-55.1724,50.9039-54.5623c21.3466,0.6213,10.9459,21.0854-9.8529,29.7606
			C1907.6481,142.4536,1892.3214,151.1326,1887.3953,158.5727z"/>
		<path fill="#FF931E" d="M1896.2118,318.8156c0,0,16.1957-1.3221,23.3851-14.1318c7.1857-12.8238,14.0559-30.6325,27.5151-18.328
			c8.2035,7.5019-1.3727,27.603-12.4861,23.8249C1923.5098,306.3876,1908.6949,321.6094,1896.2118,318.8156z"/>
		<path fill="#3FA9F5" d="M1860.9076,326.1472c0,0,13.6631-22.9127,5.7438-31.5775c-7.9275-8.6789-6.2921-13.6266,1.6346-18.273
			c7.9268-4.6464,22.4186,11.1454,9.2964,27.8678C1864.4573,320.8936,1860.9076,326.1472,1860.9076,326.1472z"/>
		<path fill="#FF1D25" d="M1861.8124,277.5355c0,0,3.1605-8.4572-2.0342-13.0932c-5.188-4.6322-11.7383-2.9969-10.8336-14.1824
			c0.9048-11.1825,12.6385-7.6403,13.5433-2.18C1863.3889,253.5328,1864.519,273.1718,1861.8124,277.5355z"/>
		<path fill="#00A99D" d="M1890.2471,486.0522c0,0-17.1763,0.3482-22.833-18.3831c-5.6523-18.7306,12.8751-33.5677,16.3154-13.3394
			C1887.1736,474.5572,1885.0264,473.8162,1890.2471,486.0522z"/>
		<path fill="#00FF00" d="M1901.6543,392.4069c0,0,12.0717-18.2261,13.7323-25.83c1.6599-7.6068,2.6554-11.9407-5.3079-13.7174
			c0,0,8.4141,6.4886,2.0378,10.2451c-6.3754,3.7669-6.3575-5.2751-6.67-12.6795c-0.3087-7.4074-3.4872-17.9136-15.5737-13.6668
			c0,0-5.5734,5.6568-2.7535,11.6945c2.8191,6.0414,10.4296,3.3644,13.1073,12.0977
			C1902.9034,369.2911,1908.8035,377.7371,1901.6543,392.4069z"/>
		<path fill="#A67C52" d="M1897.9558,372.5208c2.4232,5.714,0.2976,12.5731-4.7446,15.3163
			c-5.0421,2.7462-11.0984,0.3415-13.5179-5.3733c-2.4232-5.7073-0.3014-12.5701,4.7372-15.3126
			C1889.48,364.4051,1895.5288,366.8172,1897.9558,372.5208z"/>
		<path fill="#0071BC" d="M1909.8459,443.9686c0,0-24.6232-0.872-32.3177-4.8896c-7.6873-4.0184-12.1014-6.2557-7.5168-16.2426
			c0,0-0.959,14.0842,7.0957,10.0591c8.0502-4.0392,0.4032-10.9311-5.6099-16.9397c-6.0087-6.0057-12.457-17.4747,0.3779-27.3157
			c0,0,9.0391-1.7112,11.989,5.961c2.9314,7.6768-5.1515,13.8669,0.1741,23.4506
			C1889.3713,427.6427,1891.9873,440.4881,1909.8459,443.9686z"/>
		<path fill="#7AC943" d="M1896.7245,362.9625c0,0-5.0973-6.8367-10.9423-3.7639c-5.842,3.0735-7.4655,10.2339-15.6473,4.4254
			c-8.1849-5.8055-0.2976-15.8066,4.287-14.2955C1878.999,350.847,1894.566,358.3779,1896.7245,362.9625z"/>
		<path fill="#93278F" d="M1870.3462,420.2241c0,0-10.7064,6.7132-19.7811-2.9352c-9.0754-9.6454-1.7916-25.9825,6.3353-14.5574
			C1865.0234,414.1537,1863.4469,414.5056,1870.3462,420.2241z"/>
		<path fill="#FFFF00" d="M1848.3085,452.1646c0,0-12.5292-31.8714-0.0104-56.9529c12.515-25.0852,32.7031-54.0065,2.4886-68.5342
			c-18.4121-8.8538-39.5621,27.2719-24.0354,44.9564C1842.2708,389.3229,1833.022,431.0063,1848.3085,452.1646z"/>
		<path fill="#7AC943" d="M1865.8159,254.8482c0,0,2.1866-12.0285-10.9386-30.6222c-13.1222-18.5966,3.2842-23.5227,10.3894-19.6866
			C1872.3766,208.3652,1882.2222,239.5423,1865.8159,254.8482z"/>
		<path fill="#F7931E" d="M1886.934,321.7292c0,0,32.8043,0.5484,44.8365-4.3703c12.0284-4.9225,12.5775,26.2473-9.2927,22.4149
			C1900.6007,335.9555,1913.1851,333.7651,1886.934,321.7292z"/>
		<path fill="#754C24" d="M1917.0062,434.3775c0,0-10.3894-7.1053-11.4868-19.1338c-1.09-12.0322-14.2151-18.0446-17.4962-12.0322
			C1884.7466,409.2275,1892.3972,434.3775,1917.0062,434.3775z"/>
		<path fill="#3FA9F5" d="M1487.6215,147.9973c0,2.2633-1.613,4.0943-3.6107,4.0943c-1.9946,0-3.6151-1.831-3.6151-4.0943
			s1.6205-4.101,3.6151-4.101C1486.0084,143.8963,1487.6215,145.734,1487.6215,147.9973z"/>
		<path fill="#FF00FF" d="M1490.6079,312.894c0,0,15.3669-34.9374,8.1924-47.111c-7.1715-12.1594-13.053,0.4688-10.2526,15.32
			C1491.349,295.961,1492.381,307.6413,1490.6079,312.894z"/>
		<path fill="#754C24" d="M1466.1403,337.2672c0,0,18.4553-46.2427-1.0059-46.3596
			C1445.6658,290.8065,1459.1577,332.2719,1466.1403,337.2672z"/>
		<path fill="#C7B299" d="M1465.2103,282.0911c0,0-10.6223-7.5272-13.2777-27.0866c-2.6561-19.5564-10.6268-52.6628-2.6561-49.6548
			C1457.2434,208.3614,1474.5067,239.9568,1465.2103,282.0911z"/>
		<path fill="#3FA9F5" d="M1494.0594,123.1628c0,0,17.3325-37.5527-10.1141-68.6034c-27.4355-31.0537-54.1553,8.6648-20.2172,33.939
			C1497.6702,113.7652,1493.3363,113.0494,1494.0594,123.1628z"/>
		<path fill="#9E005D" d="M1488.283,125.3286c0,0-23.1091-31.7769-39.7148-28.8819
			C1431.9587,99.3313,1450.7295,146.9877,1488.283,125.3286z"/>
		<path fill="#ED1C24" d="M1507.788,145.1239c0,0,39.0281-72.8576,67.2158-72.0474c28.1907,0.8214,14.4509,27.8388-13.0099,39.3003
			C1534.5293,123.8354,1514.2906,135.2932,1507.788,145.1239z"/>
		<path fill="#0071BC" d="M1943.5341,384.745c0,0-15.3892,25.5651-3.9819,50.0253c11.4147,24.4706,30.6147,53.8101-2.1688,60.6833
			c-19.9841,4.2074-39.696-31.6422-22.1388-44.161C1932.8062,438.7805,1925.991,400.3633,1943.5341,384.745z"/>
		<path fill="#1B1464" d="M1505.1832,134.7702c0,0,18.0446-30.2583,7.5852-41.7057c-10.4697-11.4467-8.301-17.9932,2.165-24.1329
			c10.4706-6.1292,29.6006,14.7277,12.2755,36.8079C1509.8801,127.8204,1505.1832,134.7702,1505.1832,134.7702z"/>
		<path fill="#F7931E" d="M1506.3855,70.5699c0,0,4.171-11.1639-2.6918-17.2887c-6.8479-6.118-15.4941-3.9566-14.2993-18.7276
			c1.192-14.7605,16.686-10.0851,17.8846-2.8771C1508.4673,38.8764,1509.9568,64.812,1506.3855,70.5699z"/>
		<path fill="#A67C52" d="M1468.498,368.6951c0,0-22.6835,0.465-30.1489-24.275c-7.4655-24.7325,17.0015-44.3247,21.543-17.616
			C1464.444,353.5209,1461.6063,352.547,1468.498,368.6951z"/>
		<path fill="#F7931E" d="M1558.9933,222.2611c0,0,15.9413-24.0719,18.139-34.1093c2.1866-10.0487,3.5021-15.7597-7.0116-18.1138
			c0,0,11.106,8.5629,2.6852,13.5329c-8.4141,4.973-8.3925-6.9714-8.7994-16.744c-0.4137-9.7838-4.6062-23.6574-20.5653-18.0483
			c0,0-7.3643,7.4692-3.6367,15.4435c3.7201,7.9781,13.7687,4.4358,17.2998,15.9703
			C1560.6465,191.7372,1568.4319,202.887,1558.9933,222.2611z"/>
		<path fill="#9E005D" d="M1554.1073,196.0063c3.2037,7.5413,0.3995,16.5945-6.2631,20.2171
			c-6.656,3.6256-14.6519,0.4576-17.8489-7.0882c-3.2037-7.5421-0.3959-16.5952,6.2563-20.2208
			C1542.9181,185.2888,1550.9066,188.4717,1554.1073,196.0063z"/>
		<path fill="#0000FF" d="M1569.812,290.3452c0,0-32.5216-1.1451-42.6752-6.4484c-10.1506-5.3078-15.9814-8.2615-9.9252-21.4522
			c0,0-1.2678,18.6004,9.3619,13.2777c10.6439-5.3331,0.5409-14.4294-7.4-22.3599c-7.9379-7.9312-16.4501-23.0875,0.4971-36.0855
			c0,0,11.9347-2.2454,15.8252,7.8791c3.88,10.1432-6.7936,18.314,0.2358,30.9741
			C1542.7723,268.7873,1546.2312,285.7494,1569.812,290.3452z"/>
		<path fill="#3FA9F5" d="M1552.4832,183.3782c0,0-6.7318-9.0242-14.4443-4.9589c-7.7198,4.0541-9.8596,13.5031-20.6672,5.8383
			c-10.8082-7.6767-0.3928-20.8785,5.6598-18.8764C1529.0764,167.3789,1549.6351,177.3219,1552.4832,183.3782z"/>
		<path fill="#998675" d="M1517.6477,259.0005c0,0-14.1356,8.853-26.1208-3.8837c-11.9772-12.7368-2.3645-34.3087,8.3665-19.2179
			C1510.6212,250.9786,1508.5469,251.4399,1517.6477,259.0005z"/>
		<path fill="#754C24" d="M1488.5515,301.178c0,0-16.5439-42.0941-0.0142-75.2117c16.5298-33.1243,43.1841-71.3168,3.2878-90.4953
			c-24.3188-11.6937-52.241,36.0021-31.7405,59.362C1480.5808,218.1846,1468.3641,273.2336,1488.5515,301.178z"/>
		<path fill="#C69C6D" d="M1541.7188,83.4414c0,0,2.8845-15.8832-14.4443-40.4342c-17.3287-24.5547,4.334-31.0574,13.7181-26.0003
			C1550.3799,22.0639,1563.3815,63.2242,1541.7188,83.4414z"/>
		<path fill="#FF0000" d="M1579.2646,277.688c0,0-13.7173-9.3835-15.16-25.2668c-1.4456-15.8974-18.7781-23.839-23.1121-15.8974
			C1536.6654,244.4722,1546.7759,277.688,1579.2646,277.688z"/>
		<path fill="#FFFF00" d="M1760.0446,630.3212c-6.7645-8.5011-19.8287-8.4862-27.8209-1.119
			c-3.8979,3.604-6.005,8.3992-6.2885,13.3104c-0.0729,0.6108-0.0907,1.2789-0.0215,2.0349
			c0.1525,3.5162,1.2603,6.9893,3.3093,10.0554c0.1161,0.2404,0.1993,0.4509,0.3229,0.7128
			c17.8267,36.4738,51.2239,47.6266,51.2239,47.6266c-29.2263-28.3871-16.5803-51.6086-16.5803-51.6086
			S1768.0658,640.4204,1760.0446,630.3212z"/>
		<path fill="#D4145A" d="M1785.129,701.8746c-6.1389-21.7543,1.1301-36.6561,1.1301-36.6561s-0.0945-0.058-0.2322-0.1525
			c1.6056-3.938,0.9189-8.632-2.1583-11.9593c-4.2506-4.6069-11.4325-4.8971-16.0387-0.654
			c-2.2529,2.0781-3.459,4.8466-3.6263,7.6797c-0.0432,0.3564-0.0543,0.7336-0.0104,1.1696c0.087,2.0275,0.0289,5.973,1.2097,7.7311
			C1765.403,669.033,1771.2443,692.7485,1785.129,701.8746z"/>
		<path fill="#1B1464" d="M1676.9381,714.2408l0.1563-0.2039c1.7731,2.863,4.5706,5.101,8.0577,6.0742
			c7.4335,2.107,15.1495-2.2373,17.238-9.6558c1.9657-6.9968-1.7693-14.2554-8.4244-16.8207l0.2001-0.2321l-30.9852-15.2218
			l12.3485,32.3617c0.2179,0.7485,0.494,1.4605,0.8318,2.1725L1676.9381,714.2408z"/>
		<path fill="#754C24" d="M1638.9421,695.4225l0.171,0.0721c-1.6167,1.8824-2.5504,4.3451-2.4634,7.019
			c0.1964,5.6821,4.9625,10.1431,10.6447,9.9393c5.3621-0.1741,9.6193-4.4247,9.9318-9.6923l0.2113,0.1019l3.7491-25.176
			l-19.9701,15.9189c-0.4724,0.3199-0.9196,0.6763-1.3296,1.0758L1638.9421,695.4225z"/>
		<path fill="#A67C52" d="M1723.599,631.5704l-0.4248-0.1882c4.3488-4.7669,7.022-11.088,7.022-18.0408
			c0-14.8156-12.0061-26.8113-26.8105-26.8113c-13.9607,0-25.4192,10.6736-26.6908,24.304l-0.5409-0.247l-11.9816,65.1592
			l53.3451-39.6492c1.2611-0.7916,2.4559-1.6711,3.575-2.6517L1723.599,631.5704z"/>
		<path fill="#A67C52" d="M1658.9813,616.5309l-0.3125,0.2106c-1.1993-4.9551-4.1597-9.5041-8.7153-12.5843
			c-9.7034-6.5466-22.8799-3.9894-29.4265,5.7178c-6.1686,9.1402-4.243,21.3614,4.1233,28.2279l-0.3995,0.2396l37.3898,36.6628
			l-2.3905-52.4731c0.0505-1.1771-0.0074-2.3541-0.16-3.517L1658.9813,616.5309z"/>
		<path fill="#534741" d="M1712.7111,693.0245l-0.0647-0.2976c4.374,0.6175,8.9691-0.3125,12.8967-2.994
			c8.3553-5.7036,10.5026-17.1108,4.7952-25.4661c-5.3695-7.8761-15.814-10.2302-23.9951-5.6962l-0.073-0.4003l-41.3857,18.3467
			l42.9333,14.8215c0.9263,0.4219,1.8823,0.7485,2.8704,0.9955L1712.7111,693.0245z"/>
		<path fill="#FF931E" d="M1624.1057,660.0669l0.0291,0.247c-3.3972-0.7842-7.0808-0.3921-10.3612,1.4531
			c-6.9751,3.9023-9.4639,12.7152-5.5585,19.6978c3.6805,6.5756,11.7271,9.1617,18.4879,6.1686l0.0291,0.3267l33.8512-11.5449
			L1627.84,661.738c-0.7046-0.3847-1.4346-0.712-2.1904-0.9732L1624.1057,660.0669z"/>
		<path fill="#FF00FF" d="M1493.2671,315.3901c0,0,34.7119,17.1035,18.11,44.2771c0,0-3.5236,4.0184-7.5458-1.5111
			C1499.8062,352.6199,1505.3395,319.9168,1493.2671,315.3901z"/>
		<path fill="#F7931E" d="M1493.7686,339.5416c0,0,11.0657,19.6175,8.5554,28.6706c-2.5178,9.0599,0.5015,35.2172,14.0812,38.2394
			c13.5872,3.0155,2.0126,14.0849-8.5516,11.0657c-10.5651-3.0147-13.5798-15.5923-14.085-32.6958
			C1493.2671,367.7182,1502.8254,355.6347,1493.7686,339.5416z"/>
		<path fill="#D9E021" d="M1835.2377,199.4214c0,0,31.468,3.2841,48.8549-18.7566c17.3944-22.0407,35.5587-53.7923,57.97-25.3255
			c13.6705,17.3512-10.3463,52.5245-30.6393,41.2698C1891.1332,185.3505,1858.4226,209.2736,1835.2377,199.4214z"/>
		<path fill="#603813" d="M1502.7853,422.375c0,0-21.1323-0.7485-27.7369-4.1962c-6.5972-3.4515-10.3901-5.3658-6.452-13.9391
			c0,0-0.8207,12.0865,6.0927,8.6313c6.9127-3.4619,0.3445-9.3835-4.8137-14.5388c-5.1589-5.1553-10.6952-15.0001,0.3267-23.4498
			c0,0,7.7563-1.4642,10.2815,5.1255c2.5208,6.5868-4.418,11.8946,0.1526,20.1189
			C1485.2168,408.3593,1487.4585,419.3848,1502.7853,422.375z"/>
		<path fill="#BDCCD4" d="M1887.3224,171.4732c0,0-11.4579-29.1609-0.0074-52.1138c11.451-22.9491,29.9205-49.407,2.2855-62.7033
			c-16.8571-8.0941-36.2021,24.9505-21.9974,41.1351C1881.804,113.9757,1873.3394,152.1139,1887.3224,171.4732z"/>
		<path fill="#736357" d="M1495.6174,312.5778c0,0,22.4916,0.9374,33.0051,18.4731c10.5137,17.5439,20.7871,42.08,38.9083,24.112
			c11.0508-10.9534-3.0884-38.5526-18.3207-32.6414C1533.9735,328.4357,1512.79,307.9679,1495.6174,312.5778z"/>
		<path fill="#754C24" d="M1509.1317,319.3312c0,0,21.0094,16.7083,25.699,25.2273c4.694,8.5115,7.4186,13.3365-1.558,19.1562
			c0,0,7.8612-11.7673-1.1666-13.4384c-9.0271-1.6711-5.8123,9.3441-3.5742,18.5245c2.2372,9.1767,2.1174,23.4432-13.9792,23.7847
			c0,0-8.7266-4.3488-7.4513-12.9987c1.2677-8.6611,11.3998-8.8716,11.5522-20.7476
			C1518.8024,346.9595,1522.9406,333.9541,1509.1317,319.3312z"/>
		<path fill="#FF1D25" d="M1540.3817,358.6397c0,0,12.4318,32.1109,23.8829,33.4621c11.4399,1.3445,7.1239-10.5137-3.4583-16.8385
			C1550.2198,368.9347,1542.558,363.0458,1540.3817,358.6397z"/>
		<path fill="#9E005D" d="M1867.1201,202.2657c0,0,62.4272-6.0927,68.9955,38.4901c0,0-4.2253,11.7383-12.6714,3.7565
			C1914.9938,236.5306,1915.4624,211.1842,1867.1201,202.2657z"/>
		<path fill="#1B1464" d="M1884.9608,211.6567c0,0,35.2031,21.1211,28.6274,36.6085c0,0-1.4099,6.5682-8.4468,5.6307
			C1898.1008,252.9554,1905.6102,224.7967,1884.9608,211.6567z"/>
		<path fill="#FF0000" d="M1571.9957,460.2074c0,0,2.3027-36.0996-16.0067-44.0814c-18.3065-7.9781-19.7119,6.1069-10.7972,9.8523
			C1554.1111,429.7423,1566.8843,435.2859,1571.9957,460.2074z"/>
		<path fill="#8CC63F" d="M1532.0049,360.6702c0,0,7.545,34.7157-5.0355,36.7283c0,0-7.0405,4.0221-2.0088,10.0561
			C1529.9923,413.4922,1548.6031,399.4073,1532.0049,360.6702z"/>
		<path fill="#8C6239" d="M1538.0426,367.2093c0,0,11.0657,24.6566,7.0443,31.6973c-4.0259,7.0369-0.5089,14.0842,6.5354,11.5702
			C1558.6666,407.9597,1556.1526,394.8777,1538.0426,367.2093z"/>
		<path fill="#FFFF00" d="M1898.5659,197.5754c0,0,23.9371,11.2659,35.6754,4.6903c11.7302-6.5682,11.7302-18.299,18.302-17.834
			c6.5757,0.4762,0.9413,29.0992-16.4277,27.225C1918.754,209.7751,1898.5659,197.5754,1898.5659,197.5754z"/>
		<path fill="#00FF00" d="M1929.162,84.3022c0,5.188-4.1954,9.3798-9.3798,9.3798c-5.1805,0-9.3768-4.1918-9.3768-9.3798
			c0-5.1806,4.1963-9.3768,9.3768-9.3768C1924.9666,74.9254,1929.162,79.1216,1929.162,84.3022z"/>
		<path fill="#FF931E" d="M1839.1177,175.2952c0,7.763-6.3033,14.0626-14.0739,14.0626c-7.7704,0-14.0699-6.2996-14.0699-14.0626
			c0-7.778,6.2996-14.0775,14.0699-14.0775C1832.8143,161.2177,1839.1177,167.5172,1839.1177,175.2952z"/>
		<path fill="#00A99D" d="M1460.1644,24.0251c0,6.3799-5.1732,11.5493-11.556,11.5493c-6.3829,0-11.5531-5.1694-11.5531-11.5493
			c0-6.3866,5.1702-11.5598,11.5531-11.5598C1454.9912,12.4653,1460.1644,17.6385,1460.1644,24.0251z"/>
		<path fill="#F15A24" d="M1576.4746,21.453c0,5.6999-4.6211,10.3247-10.3173,10.3247c-5.6998,0-10.3171-4.6248-10.3171-10.3247
			c0-5.6962,4.6173-10.3135,10.3171-10.3135C1571.8535,11.1395,1576.4746,15.7569,1576.4746,21.453z"/>
		<path fill="#FF00FF" d="M1452.6588,384.4623c0,5.1798-4.1992,9.3835-9.3835,9.3835c-5.1805,0-9.3805-4.2037-9.3805-9.3835
			c0-5.1768,4.2-9.3806,9.3805-9.3806C1448.4596,375.0817,1452.6588,379.2854,1452.6588,384.4623z"/>
		<circle fill="#7AC943" cx="1480.7974" cy="339.4397" r="5.6292"/>
		<path fill="#D9E021" d="M1544.5818,303.8007c0,5.1768-4.2001,9.3731-9.3768,9.3731c-5.1836,0-9.3873-4.1963-9.3873-9.3731
			c0-5.1873,4.2037-9.3835,9.3873-9.3835C1540.3817,294.4171,1544.5818,298.6134,1544.5818,303.8007z"/>
		<path fill="#93278F" d="M1522.0723,295.3546c0,3.6219-2.9388,6.5644-6.5643,6.5644c-3.6294,0-6.5682-2.9426-6.5682-6.5644
			c0-3.6293,2.9388-6.5645,6.5682-6.5645C1519.1334,288.7902,1522.0723,291.7253,1522.0723,295.3546z"/>
	</g>
</g>
</svg>
